<svg width="48" height="48" viewBox="0 0 48 48" fill="none" xmlns="http://www.w3.org/2000/svg">
<path d="M46.1854 22.9871C46.6666 22.9868 47.1279 22.7956 47.4682 22.4553C47.8084 22.1151 47.9997 21.6537 48 21.1725V15.0066C48 5.74033 42.2159 0 33.0069 0H15.0066C5.74033 0 0 5.74033 0 15.0145V33.0136C0 42.2586 5.74033 47.9989 15.0066 47.9989H33.0136C42.2586 47.9989 47.9989 42.2586 47.9921 33.0058C47.9921 32.5188 47.7987 32.0518 47.4544 31.7075C47.1101 31.3632 46.6431 31.1698 46.1562 31.1698C45.6693 31.1698 45.2023 31.3632 44.858 31.7075C44.5137 32.0518 44.3202 32.5188 44.3202 33.0058C44.3202 40.2878 40.3103 44.3191 33.0069 44.3191H15.0066C7.70767 44.3191 3.67192 40.2867 3.67192 33.0058V15.0066C3.67192 7.70767 7.7043 3.67192 15.0133 3.67192H33.0136C40.3193 3.67192 44.327 7.6796 44.327 15.0066V21.1107C44.3278 21.597 44.5217 22.063 44.866 22.4064C45.2102 22.7498 45.6767 22.9425 46.1629 22.9422V22.9849L46.1854 22.9871Z" fill="#119273"/>
<path d="M31.2709 17.0323L21.1523 27.1531L16.7291 22.7266C16.3914 22.389 15.9334 22.1995 15.4559 22.1996C14.9784 22.1997 14.5205 22.3895 14.1829 22.7272C13.8454 23.0649 13.6558 23.5229 13.6559 24.0004C13.656 24.4779 13.8458 24.9358 14.1835 25.2734L19.8789 30.971C20.2171 31.3079 20.675 31.497 21.1523 31.497C21.6296 31.497 22.0875 31.3079 22.4257 30.971L33.8176 19.578C33.9848 19.4108 34.1173 19.2122 34.2078 18.9938C34.2982 18.7753 34.3447 18.5412 34.3447 18.3048C34.3446 18.0683 34.298 17.8342 34.2075 17.6158C34.1169 17.3974 33.9843 17.1989 33.8171 17.0318C33.6498 16.8646 33.4513 16.732 33.2329 16.6416C33.0144 16.5512 32.7803 16.5047 32.5438 16.5047C32.3074 16.5048 32.0733 16.5514 31.8549 16.6419C31.6365 16.7324 31.438 16.8651 31.2709 17.0323" fill="#134574"/>
</svg>
