<svg xmlns="http://www.w3.org/2000/svg" width="20.1" height="20.1"><path d="M2.943 2.943c-3.924 3.925-3.924 10.289 0 14.214 3.925 3.924 10.289 3.924 14.214 0 3.924-3.925 3.924-10.29 0-14.214-3.925-3.924-10.29-3.924-14.214 0Zm7.51 1.273c.849 0 1.527.7 1.527 1.549 0 .848-.7 1.548-1.527 1.548-.848 0-1.549-.7-1.549-1.57 0-.848.7-1.527 1.549-1.527Zm2.185 10.374a1.014 1.014 0 0 1-.212.36c-.552.573-1.23.913-2.037.913-.382 0-.742 0-1.124-.064-.615-.085-1.4-.849-1.294-1.655l.254-1.654c.17-.955.34-1.93.51-2.886 0-.063.02-.127.02-.19 0-.403-.127-.552-.53-.594a4.255 4.255 0 0 1-.509-.085c-.19-.064-.297-.234-.276-.382.022-.17.128-.276.34-.318.106-.021.233-.021.36-.021h2.928c.36 0 .573.17.573.53 0 .297-.043.594-.106.891-.191 1.103-.403 2.185-.594 3.288-.064.36-.149.721-.191 1.082-.021.17 0 .36.042.53.064.234.234.361.467.34.19-.021.382-.085.573-.17.148-.063.276-.17.424-.212.255-.085.446.063.382.297Z" fill="#ff9131" fill-rule="evenodd" data-name="Path 2866"/></svg>