<svg width="29" height="28" viewBox="0 0 29 28" fill="none" xmlns="http://www.w3.org/2000/svg">
<g clip-path="url(#clip0_39_2)">
<path d="M7.66199 24.966C7.88193 24.9658 8.09698 25.0308 8.27996 25.1529C8.46293 25.2749 8.60562 25.4484 8.68997 25.6515C8.77431 25.8547 8.79654 26.0782 8.75382 26.294C8.71111 26.5097 8.60538 26.7079 8.45 26.8636C8.29463 27.0193 8.09658 27.1253 7.88092 27.1684C7.66525 27.2115 7.44164 27.1897 7.23837 27.1057C7.03511 27.0218 6.86131 26.8794 6.73896 26.6966C6.6166 26.5139 6.55119 26.2989 6.55099 26.079C6.55099 25.7842 6.66798 25.5014 6.87628 25.2927C7.08457 25.084 7.36716 24.9665 7.66199 24.966V24.966Z" stroke="#10AE73" stroke-width="1.5" stroke-miterlimit="10" stroke-linecap="round" stroke-linejoin="round"/>
<path d="M24.027 24.966C24.2468 24.9662 24.4617 25.0316 24.6444 25.1538C24.8271 25.2761 24.9695 25.4498 25.0535 25.6529C25.1376 25.8561 25.1595 26.0796 25.1166 26.2952C25.0736 26.5108 24.9678 26.7088 24.8123 26.8643C24.6568 27.0198 24.4588 27.1256 24.2432 27.1686C24.0276 27.2115 23.8041 27.1896 23.6009 27.1055C23.3978 27.0215 23.2241 26.8791 23.1018 26.6964C22.9796 26.5137 22.9142 26.2989 22.914 26.079C22.914 25.7838 23.0313 25.5007 23.24 25.292C23.4487 25.0833 23.7318 24.966 24.027 24.966V24.966Z" stroke="#10AE73" stroke-width="1.5" stroke-miterlimit="10" stroke-linecap="round" stroke-linejoin="round"/>
<path d="M0.867004 0.867004L3.892 1.391L5.292 18.076C5.34741 18.7308 5.64674 19.3408 6.13069 19.7853C6.61464 20.2298 7.2479 20.4763 7.905 20.476H23.775C24.4063 20.4767 25.0167 20.2499 25.4943 19.8369C25.9719 19.424 26.2845 18.8528 26.375 18.228L27.755 8.691C27.7943 8.41435 27.7736 8.13249 27.6944 7.86451C27.6153 7.59653 27.4794 7.3487 27.2961 7.1378C27.1128 6.9269 26.8863 6.75786 26.632 6.64212C26.3777 6.52639 26.1014 6.46667 25.822 6.467H4.378" stroke="#10AE73" stroke-width="1.5" stroke-miterlimit="10" stroke-linecap="round" stroke-linejoin="round"/>
<path d="M17.411 11.84H21.444" stroke="#10AE73" stroke-width="1.5" stroke-miterlimit="10" stroke-linecap="round" stroke-linejoin="round"/>
</g>
<defs>
<clipPath id="clip0_39_2">
<rect width="28.526" height="27.939" fill="white"/>
</clipPath>
</defs>
</svg>
