<svg width="21" height="20" viewBox="0 0 21 20" fill="none" xmlns="http://www.w3.org/2000/svg">
<g clip-path="url(#clip0_2_2)">
<path d="M5.539 17.437C5.69035 17.4368 5.83835 17.4815 5.96428 17.5654C6.09022 17.6494 6.18843 17.7688 6.24648 17.9086C6.30453 18.0483 6.31983 18.2022 6.29042 18.3506C6.26102 18.4991 6.18824 18.6355 6.08129 18.7426C5.97434 18.8497 5.83804 18.9226 5.68961 18.9522C5.54119 18.9818 5.38732 18.9667 5.24748 18.9089C5.10763 18.851 4.9881 18.7529 4.904 18.6271C4.81989 18.5013 4.775 18.3533 4.775 18.202C4.77526 17.9994 4.85581 17.8051 4.999 17.6617C5.14219 17.5183 5.33636 17.4375 5.539 17.437V17.437Z" stroke="#200E32" stroke-width="1.5" stroke-miterlimit="10" stroke-linecap="round" stroke-linejoin="round"/>
<path d="M16.792 17.437C16.9433 17.437 17.0912 17.4819 17.217 17.5659C17.3428 17.65 17.4409 17.7695 17.4988 17.9092C17.5567 18.049 17.5718 18.2028 17.5423 18.3512C17.5128 18.4996 17.4399 18.6359 17.3329 18.7429C17.2259 18.8499 17.0896 18.9228 16.9412 18.9523C16.7928 18.9818 16.639 18.9667 16.4992 18.9088C16.3595 18.8509 16.24 18.7528 16.1559 18.627C16.0719 18.5012 16.027 18.3533 16.027 18.202C16.0273 17.9992 16.1079 17.8048 16.2514 17.6614C16.3948 17.5179 16.5892 17.4373 16.792 17.437V17.437Z" stroke="#200E32" stroke-width="1.5" stroke-miterlimit="10" stroke-linecap="round" stroke-linejoin="round"/>
<path d="M0.867 0.867L2.947 1.227L3.91 12.7C3.94699 13.1515 4.15284 13.5724 4.48648 13.8788C4.82012 14.1852 5.25702 14.3545 5.71 14.353H16.619C17.0529 14.3537 17.4725 14.1977 17.8005 13.9136C18.1284 13.6295 18.3428 13.2366 18.404 12.807L19.353 6.249C19.3805 6.05867 19.3668 5.86464 19.3128 5.68008C19.2587 5.49552 19.1656 5.32475 19.0397 5.17934C18.9139 5.03394 18.7582 4.91731 18.5833 4.83736C18.4084 4.75742 18.2183 4.71603 18.026 4.716H3.281" stroke="#200E32" stroke-width="1.5" stroke-miterlimit="10" stroke-linecap="round" stroke-linejoin="round"/>
<path d="M12.242 8.412H15.015" stroke="#200E32" stroke-width="1.5" stroke-miterlimit="10" stroke-linecap="round" stroke-linejoin="round"/>
</g>
<defs>
<clipPath id="clip0_2_2">
<rect width="20.12" height="19.716" fill="white"/>
</clipPath>
</defs>
</svg>
