<svg width="15" height="15" viewBox="0 0 15 15" fill="none" xmlns="http://www.w3.org/2000/svg">
<g clip-path="url(#clip0_37_9)">
<path d="M7.49999 0C6.01608 2.22917e-06 4.56552 0.4402 3.33187 1.26489C2.09822 2.08957 1.13693 3.26168 0.569661 4.63288C0.00238729 6.00409 -0.145377 7.51275 0.145068 8.96797C0.435512 10.4232 1.15111 11.7595 2.2013 12.8079C3.2515 13.8563 4.58909 14.5696 6.0448 14.8575C7.50051 15.1454 9.00892 14.995 10.3791 14.4254C11.7494 13.8557 12.9198 12.8924 13.7423 11.6573C14.5649 10.4222 15.0026 8.97091 15 7.487C14.9944 5.50078 14.2021 3.59769 12.7964 2.19443C11.3907 0.791179 9.48622 0.00210862 7.49999 0M6.43199 10.983L3.43699 7.983L4.42699 6.992L6.43199 9L11.276 4.148L12.266 5.139L6.43199 10.983Z" fill="#10AE73"/>
</g>
<defs>
<clipPath id="clip0_37_9">
<rect width="15" height="15" fill="white"/>
</clipPath>
</defs>
</svg>
