<svg width="67" height="39" viewBox="0 0 67 39" fill="none" xmlns="http://www.w3.org/2000/svg">
<g clip-path="url(#clip0_7_14)">
<path d="M15.671 11.721H1.585C0.709629 11.721 0 12.4306 0 13.306V13.307C0 14.1824 0.709629 14.892 1.585 14.892H15.671C16.5464 14.892 17.256 14.1824 17.256 13.307V13.306C17.256 12.4306 16.5464 11.721 15.671 11.721Z" fill="#134574"/>
<path d="M29.821 9.24701H24.408C23.5326 9.24701 22.823 9.95664 22.823 10.832V10.833C22.823 11.7084 23.5326 12.418 24.408 12.418H29.821C30.6964 12.418 31.406 11.7084 31.406 10.833V10.832C31.406 9.95664 30.6964 9.24701 29.821 9.24701Z" fill="#134574"/>
<path d="M23.317 14.891H20.072C19.1966 14.891 18.487 15.6006 18.487 16.476V16.477C18.487 17.3524 19.1966 18.062 20.072 18.062H23.317C24.1924 18.062 24.902 17.3524 24.902 16.477V16.476C24.902 15.6006 24.1924 14.891 23.317 14.891Z" fill="#134574"/>
<path d="M66.995 20.919C66.995 20.867 66.986 20.819 66.979 20.762C66.972 20.705 66.969 20.676 66.959 20.633C66.9478 20.5876 66.9341 20.5429 66.918 20.499C66.9041 20.4528 66.8877 20.4074 66.869 20.363C66.8505 20.325 66.8302 20.288 66.808 20.252C66.783 20.2048 66.7553 20.159 66.725 20.115C66.717 20.105 66.713 20.093 66.705 20.083L57.625 8.105C57.608 8.083 57.587 8.066 57.569 8.045C57.535 8.005 57.5 7.967 57.463 7.931C57.426 7.895 57.396 7.872 57.363 7.844C57.3255 7.81391 57.2865 7.78587 57.246 7.76C57.206 7.735 57.166 7.714 57.125 7.693C57.0834 7.67147 57.0406 7.65211 56.997 7.635C56.951 7.618 56.907 7.604 56.861 7.591C56.815 7.578 56.774 7.568 56.729 7.56C56.6754 7.55125 56.6213 7.5459 56.567 7.544C56.54 7.544 56.514 7.535 56.487 7.535L42.987 7.359V1.445C42.987 1.06176 42.8348 0.694221 42.5638 0.423231C42.2928 0.152241 41.9252 0 41.542 0H8.635C8.25176 0 7.88422 0.152241 7.61323 0.423231C7.34224 0.694221 7.19 1.06176 7.19 1.445V5.951C7.19 6.33424 7.34224 6.70178 7.61323 6.97277C7.88422 7.24376 8.25176 7.396 8.635 7.396V7.396C9.01824 7.396 9.38578 7.24376 9.65677 6.97277C9.92776 6.70178 10.08 6.33424 10.08 5.951V2.891H40.103V28.012H25.075C24.5021 26.745 23.5761 25.6701 22.4077 24.9162C21.2394 24.1622 19.8785 23.7612 18.488 23.7612C17.0975 23.7612 15.7366 24.1622 14.5683 24.9162C13.3999 25.6701 12.4738 26.745 11.901 28.012H10.081V21.358C10.0807 20.9748 9.92841 20.6075 9.65748 20.3365C9.38654 20.0656 9.01916 19.9133 8.636 19.913V19.913C8.25267 19.913 7.88503 20.0652 7.61388 20.3362C7.34273 20.6071 7.19026 20.9747 7.19 21.358V29.458C7.19 29.8412 7.34224 30.2088 7.61323 30.4798C7.88422 30.7508 8.25176 30.903 8.635 30.903H11.251C11.251 30.937 11.246 30.969 11.246 31.003C11.246 31.954 11.4333 32.8956 11.7972 33.7742C12.1611 34.6528 12.6945 35.4511 13.367 36.1235C14.0394 36.7959 14.8377 37.3294 15.7163 37.6933C16.5949 38.0572 17.5365 38.2445 18.4875 38.2445C19.4385 38.2445 20.3801 38.0572 21.2587 37.6933C22.1373 37.3294 22.9356 36.7959 23.608 36.1235C24.2804 35.4511 24.8139 34.6528 25.1778 33.7742C25.5417 32.8956 25.729 31.954 25.729 31.003C25.729 30.969 25.729 30.937 25.724 30.903H45.955C45.955 30.937 45.95 30.969 45.95 31.003C45.95 32.9234 46.7129 34.7652 48.0708 36.1232C49.4288 37.4811 51.2706 38.244 53.191 38.244C55.1114 38.244 56.9532 37.4811 58.3112 36.1232C59.6691 34.7652 60.432 32.9234 60.432 31.003C60.432 30.969 60.432 30.937 60.427 30.903H65.555C65.7448 30.903 65.9327 30.8656 66.108 30.793C66.2833 30.7204 66.4426 30.614 66.5768 30.4798C66.7109 30.3456 66.8174 30.1863 66.89 30.011C66.9626 29.8357 67 29.6478 67 29.458V20.958C66.9976 20.9451 66.9959 20.9321 66.995 20.919V20.919ZM18.488 35.358C17.6274 35.3582 16.7861 35.1032 16.0704 34.6252C15.3548 34.1472 14.797 33.4678 14.4675 32.6727C14.138 31.8777 14.0517 31.0029 14.2195 30.1588C14.3873 29.3147 14.8016 28.5393 15.41 27.9307C16.0185 27.3221 16.7938 26.9076 17.6378 26.7397C18.4818 26.5717 19.3567 26.6578 20.1518 26.9871C20.9469 27.3164 21.6265 27.8741 22.1047 28.5896C22.5828 29.3052 22.838 30.1464 22.838 31.007C22.8367 32.1604 22.378 33.2662 21.5625 34.0818C20.747 34.8975 19.6414 35.3564 18.488 35.358V35.358ZM53.188 35.358C52.3275 35.358 51.4862 35.1028 50.7707 34.6247C50.0552 34.1466 49.4975 33.4671 49.1682 32.6721C48.8389 31.877 48.7527 31.0022 48.9206 30.1582C49.0885 29.3141 49.5029 28.5389 50.1114 27.9304C50.7199 27.3219 51.4952 26.9075 52.3392 26.7396C53.1832 26.5717 54.058 26.6579 54.8531 26.9872C55.6481 27.3165 56.3276 27.8742 56.8057 28.5897C57.2838 29.3052 57.539 30.1465 57.539 31.007C57.5379 32.1605 57.0793 33.2664 56.2638 34.0821C55.4483 34.8978 54.3425 35.3567 53.189 35.358H53.188ZM64.106 28.017H59.776C59.2032 26.7502 58.2772 25.6756 57.1091 24.9218C55.941 24.1679 54.5802 23.767 53.19 23.767C51.7998 23.767 50.439 24.1679 49.2709 24.9218C48.1028 25.6756 47.1768 26.7502 46.604 28.017H42.994V10.25L55.749 10.416L64.107 21.443L64.106 28.017Z" fill="#119273"/>
</g>
<defs>
<clipPath id="clip0_7_14">
<rect width="67" height="38.245" fill="white"/>
</clipPath>
</defs>
</svg>
