<svg width="20" height="17" viewBox="0 0 20 17" fill="none" xmlns="http://www.w3.org/2000/svg">
<g opacity="0.5">
<path d="M9.99898 11.963C9.22521 11.963 8.46883 11.7336 7.82548 11.3037C7.18214 10.8738 6.68073 10.2627 6.38466 9.54787C6.0886 8.83298 6.01119 8.04636 6.16222 7.28748C6.31324 6.5286 6.68593 5.83155 7.23313 5.28448C7.78033 4.73742 8.47748 4.36492 9.2364 4.21409C9.99532 4.06325 10.7819 4.14087 11.4967 4.43711C12.2115 4.73335 12.8224 5.23492 13.2522 5.87838C13.6819 6.52183 13.9112 7.27828 13.911 8.05204C13.9099 9.08915 13.4974 10.0835 12.7639 10.8167C12.0305 11.55 11.0361 11.9622 9.99898 11.963V11.963ZM9.99898 5.64004C9.52193 5.64004 9.05559 5.7815 8.65894 6.04654C8.26229 6.31157 7.95314 6.68827 7.77058 7.12901C7.58802 7.56974 7.54026 8.05472 7.63332 8.5226C7.72639 8.99048 7.95611 9.42026 8.29344 9.75758C8.63076 10.0949 9.06054 10.3246 9.52842 10.4177C9.9963 10.5108 10.4813 10.463 10.922 10.2804C11.3627 10.0979 11.7394 9.78873 12.0045 9.39208C12.2695 8.99542 12.411 8.52909 12.411 8.05204C12.4104 7.4125 12.1562 6.79931 11.7039 6.34708C11.2517 5.89486 10.6385 5.64057 9.99898 5.64004V5.64004Z" fill="#222222"/>
<path d="M10.002 16.104H9.997C7.88852 16.0782 5.85116 15.3379 4.218 14.004C2.38655 12.4917 0.958327 10.5491 0.0610038 8.35C0.0208364 8.25649 0.00012207 8.15578 0.00012207 8.054C0.00012207 7.95222 0.0208364 7.85151 0.0610038 7.758C0.957898 5.55778 2.38615 3.61417 4.218 2.101C5.85103 0.766786 7.8884 0.0260828 9.997 0V0C12.1062 0.0253486 14.1443 0.76572 15.778 2.1C17.6096 3.61261 19.0378 5.55551 19.935 7.755C19.9752 7.84851 19.9959 7.94923 19.9959 8.051C19.9959 8.15278 19.9752 8.25349 19.935 8.347C19.0378 10.5465 17.6096 12.4894 15.778 14.002C14.1448 15.3359 12.1075 16.0762 9.999 16.102L10.002 16.104ZM1.57 8.05C3.43 12.159 6.564 14.601 10 14.602C13.436 14.603 16.57 12.159 18.43 8.05C16.57 3.943 13.437 1.501 10 1.5C6.563 1.499 3.43 3.943 1.57 8.05Z" fill="#222222"/>
</g>
</svg>
