<svg xmlns="http://www.w3.org/2000/svg" width="20.002" height="19" viewBox="0 0 20.002 19">
  <path id="Heart" d="M9.63,18.9l-.245-.148a34.752,34.752,0,0,1-6-4.673A12.339,12.339,0,0,1,.405,9.329a7.756,7.756,0,0,1,.2-5.5A6.3,6.3,0,0,1,4.483.315a6.563,6.563,0,0,1,5.25.541L10,1.014l.268-.159A6.573,6.573,0,0,1,15.246.236l.266.079a6.307,6.307,0,0,1,3.881,3.52,7.78,7.78,0,0,1,.2,5.511,12.493,12.493,0,0,1-2.976,4.737,34.774,34.774,0,0,1-6,4.665l-.229.143a.735.735,0,0,1-.762.006Zm-4.7-17.19A4.867,4.867,0,0,0,1.922,4.471a6.278,6.278,0,0,0-.13,4.4,11.014,11.014,0,0,0,2.614,4.168A33.256,33.256,0,0,0,10.144,17.5L10,17.41l.467-.294a33.232,33.232,0,0,0,4.594-3.573l.528-.5a10.966,10.966,0,0,0,2.615-4.158,6.285,6.285,0,0,0-.13-4.407,4.874,4.874,0,0,0-3.012-2.768,5.108,5.108,0,0,0-4.628.78.733.733,0,0,1-.865.009l-.2-.141a5.1,5.1,0,0,0-4.443-.648ZM14.788,7.1a1.981,1.981,0,0,0-1.363-1.725.731.731,0,1,1,.445-1.392,3.442,3.442,0,0,1,2.376,3,.732.732,0,0,1-.668.789l-.063,0A.731.731,0,0,1,14.788,7.1Z" transform="translate(0.001)" fill="#200e32"/>
</svg>
