<svg width="13" height="13" viewBox="0 0 13 13" fill="none" xmlns="http://www.w3.org/2000/svg">
<path d="M12.987 6.391V6.386C12.9766 6.33573 12.9598 6.287 12.937 6.241L12.919 6.209C12.8927 6.16292 12.8608 6.12026 12.824 6.082L6.916 0.173C6.80503 0.0623495 6.65471 0.000213623 6.498 0.000213623C6.34129 0.000213623 6.19097 0.0623495 6.08 0.173L0.171 6.081C0.13356 6.11869 0.101583 6.16144 0.0760002 6.208L0.0580002 6.24C0.0339753 6.28547 0.0171102 6.33438 0.00800017 6.385V6.391C0.00230158 6.42705 -0.000374401 6.46351 1.68628e-07 6.5V12.408C0.000263619 12.5648 0.0625824 12.715 0.173331 12.826C0.284079 12.9369 0.434247 12.9995 0.591 13H5.022V9.455H7.976V13H12.407C12.5639 13 12.7145 12.9378 12.8256 12.827C12.9368 12.7162 12.9995 12.5659 13 12.409V6.5C13.0005 6.46331 12.9965 6.4267 12.988 6.391" fill="black"/>
</svg>
