<svg width="31" height="32" viewBox="0 0 31 32" fill="none" xmlns="http://www.w3.org/2000/svg">
<path d="M22.475 11.567C22.6858 11.7672 22.8088 12.0428 22.8171 12.3334C22.8253 12.624 22.7181 12.9061 22.519 13.118L15.319 20.718C15.0615 20.9895 14.7513 21.2056 14.4074 21.3531C14.0635 21.5006 13.6932 21.5764 13.319 21.576H13.225C12.8402 21.5664 12.4617 21.4762 12.1139 21.3111C11.7661 21.1461 11.4568 20.91 11.206 20.618L8.106 17.009C7.99289 16.9038 7.90321 16.7759 7.84281 16.6337C7.7824 16.4915 7.75262 16.3382 7.7554 16.1838C7.75819 16.0293 7.79347 15.8772 7.85896 15.7373C7.92445 15.5973 8.01868 15.4728 8.13551 15.3717C8.25234 15.2706 8.38914 15.1953 8.53702 15.1506C8.6849 15.1059 8.84053 15.0929 8.99378 15.1123C9.14703 15.1318 9.29447 15.1833 9.42649 15.2636C9.5585 15.3438 9.67214 15.4509 9.76 15.578L12.86 19.187C12.9104 19.2455 12.9724 19.2929 13.0422 19.3261C13.112 19.3592 13.1879 19.3774 13.2651 19.3795C13.3423 19.3816 13.4191 19.3675 13.4906 19.3381C13.562 19.3087 13.6266 19.2648 13.68 19.209L20.888 11.609C20.988 11.4999 21.1091 11.4121 21.2439 11.3508C21.3787 11.2896 21.5244 11.2562 21.6724 11.2527C21.8204 11.2491 21.9676 11.2755 22.1052 11.3302C22.2427 11.3849 22.3678 11.4668 22.473 11.571L22.475 11.567ZM30.662 10.854V21.696C30.662 24.3216 29.619 26.8397 27.7624 28.6963C25.9057 30.5529 23.3876 31.596 20.762 31.596H9.9C7.27436 31.596 4.75625 30.5529 2.89964 28.6963C1.04303 26.8397 0 24.3216 0 21.696L0 10.854C0 8.22834 1.04303 5.71023 2.89964 3.85362C4.75625 1.99701 7.27436 0.953979 9.9 0.953979L20.742 0.953979C23.3676 0.953979 25.8857 1.99701 27.7424 3.85362C29.599 5.71023 30.642 8.22834 30.642 10.854H30.662ZM28.462 10.854C28.462 8.81181 27.6508 6.85329 26.2067 5.40926C24.7627 3.96523 22.8042 3.15398 20.762 3.15398H9.9C7.85783 3.15398 5.89931 3.96523 4.45528 5.40926C3.01125 6.85329 2.2 8.81181 2.2 10.854V21.696C2.2 23.7381 3.01125 25.6967 4.45528 27.1407C5.89931 28.5847 7.85783 29.396 9.9 29.396H20.742C22.7842 29.396 24.7427 28.5847 26.1867 27.1407C27.6308 25.6967 28.442 23.7381 28.442 21.696L28.462 10.854Z" fill="#10AE73"/>
</svg>
