<svg width="34" height="37" viewBox="0 0 34 37" fill="none" xmlns="http://www.w3.org/2000/svg">
<path d="M33.08 14.466V5.1C33.0773 3.90734 32.6024 2.76428 31.759 1.92094C30.9157 1.07759 29.7726 0.602641 28.58 0.599999H6.02198C4.70178 0.595949 3.4334 1.11348 2.49288 2.03996C1.55235 2.96644 1.0158 4.22688 0.999984 5.547V30.581C0.993848 30.6811 1.00904 30.7813 1.04456 30.8751C1.08008 30.9689 1.13512 31.054 1.20603 31.125C1.27693 31.1959 1.36209 31.2509 1.45587 31.2864C1.54964 31.3219 1.64989 31.3371 1.74998 31.331H6.24998V35.831C6.25223 35.9776 6.2974 36.1203 6.37989 36.2415C6.46238 36.3627 6.57859 36.4571 6.71414 36.5129C6.84969 36.5688 6.99864 36.5837 7.14258 36.5558C7.28651 36.5279 7.41911 36.4584 7.52398 36.356L9.32398 34.332L11.124 36.356C11.2256 36.4667 11.3588 36.5434 11.5055 36.576C11.6521 36.6086 11.8053 36.5953 11.9442 36.5381C12.0831 36.4808 12.2011 36.3823 12.2823 36.2559C12.3634 36.1294 12.4038 35.9811 12.398 35.831V31.331H26.184C26.2841 31.3371 26.3843 31.3219 26.4781 31.2864C26.5719 31.2509 26.657 31.1959 26.7279 31.125C26.7989 31.054 26.8539 30.9689 26.8894 30.8751C26.9249 30.7813 26.9401 30.6811 26.934 30.581V15.216H32.106C32.706 15.216 33.08 14.916 33.08 14.466ZM11.118 33.879L10.069 32.679C9.91745 32.5347 9.71622 32.4542 9.50698 32.4542C9.29774 32.4542 9.09652 32.5347 8.94498 32.679L7.89998 33.879V26.979C8.97951 27.2792 10.1205 27.2792 11.2 26.979V33.879H11.118ZM11.568 25.185C10.9136 25.5082 10.1975 25.6873 9.46798 25.71C8.33975 25.719 7.24737 25.314 6.39776 24.5716C5.54815 23.8292 5.0003 22.8009 4.85797 21.6817C4.71564 20.5624 4.98872 19.4298 5.62548 18.4984C6.26224 17.567 7.21847 16.9014 8.31306 16.6278C9.40764 16.3541 10.5646 16.4914 11.5647 17.0136C12.5649 17.5358 13.3388 18.4066 13.74 19.4612C14.1411 20.5158 14.1416 21.6808 13.7413 22.7357C13.341 23.7906 12.5677 24.662 11.568 25.185M25.584 29.832H12.618V26.309C13.5049 25.7667 14.2388 25.0071 14.7503 24.1021C15.2618 23.1971 15.5339 22.1765 15.541 21.137C15.5443 20.3388 15.3895 19.5479 15.0856 18.8098C14.7817 18.0718 14.3346 17.4012 13.7702 16.8368C13.2058 16.2724 12.5352 15.8253 11.7972 15.5214C11.0591 15.2175 10.2682 15.0627 9.46998 15.066C8.14178 15.0739 6.85235 15.5146 5.79716 16.3213C4.74198 17.128 3.97856 18.2568 3.62264 19.5364C3.26671 20.8161 3.33769 22.1769 3.8248 23.4126C4.31191 24.6482 5.1886 25.6914 6.32198 26.384V29.832H2.57398V5.547C2.56454 5.09797 2.64478 4.65157 2.81002 4.23394C2.97526 3.81631 3.22217 3.43586 3.53628 3.11485C3.8504 2.79384 4.22541 2.53873 4.63936 2.36447C5.0533 2.19021 5.49786 2.1003 5.94698 2.1H25.585L25.584 29.832ZM17.568 9.07H27.159V2.1H28.583C29.3781 2.10185 30.1401 2.41851 30.7023 2.98072C31.2645 3.54293 31.5811 4.30492 31.583 5.1L17.568 9.07Z" fill="#10AE73"/>
<path d="M11.568 25.185C10.9136 25.5082 10.1975 25.6873 9.46798 25.71C8.33975 25.719 7.24737 25.314 6.39776 24.5716C5.54815 23.8292 5.0003 22.8009 4.85797 21.6817C4.71564 20.5624 4.98872 19.4298 5.62548 18.4984C6.26224 17.567 7.21847 16.9014 8.31306 16.6278C9.40764 16.3541 10.5646 16.4914 11.5647 17.0136C12.5649 17.5358 13.3388 18.4066 13.74 19.4612C14.1411 20.5158 14.1416 21.6808 13.7413 22.7357C13.341 23.7906 12.5677 24.662 11.568 25.185M33.08 14.466V5.1C33.0773 3.90734 32.6024 2.76428 31.759 1.92094C30.9157 1.07759 29.7726 0.602641 28.58 0.599999H6.02198C4.70178 0.595949 3.4334 1.11348 2.49288 2.03996C1.55235 2.96644 1.0158 4.22688 0.999984 5.547V30.581C0.993848 30.6811 1.00904 30.7813 1.04456 30.8751C1.08008 30.9689 1.13512 31.054 1.20603 31.125C1.27693 31.1959 1.36209 31.2509 1.45587 31.2864C1.54964 31.3219 1.64989 31.3371 1.74998 31.331H6.24998V35.831C6.25223 35.9776 6.2974 36.1203 6.37989 36.2415C6.46238 36.3627 6.57859 36.4571 6.71414 36.5129C6.84969 36.5688 6.99864 36.5837 7.14258 36.5558C7.28651 36.5279 7.41911 36.4584 7.52398 36.356L9.32398 34.332L11.124 36.356C11.2256 36.4667 11.3588 36.5434 11.5055 36.576C11.6521 36.6086 11.8053 36.5953 11.9442 36.5381C12.0831 36.4808 12.2011 36.3823 12.2823 36.2559C12.3634 36.1294 12.4038 35.9811 12.398 35.831V31.331H26.184C26.2841 31.3371 26.3843 31.3219 26.4781 31.2864C26.5719 31.2509 26.657 31.1959 26.7279 31.125C26.7989 31.054 26.8539 30.9689 26.8894 30.8751C26.9249 30.7813 26.9401 30.6811 26.934 30.581V15.216H32.106C32.706 15.216 33.08 14.916 33.08 14.466ZM11.118 33.879L10.069 32.679C9.91745 32.5347 9.71622 32.4542 9.50698 32.4542C9.29774 32.4542 9.09652 32.5347 8.94498 32.679L7.89998 33.879V26.979C8.97951 27.2792 10.1205 27.2792 11.2 26.979V33.879H11.118ZM25.584 29.832H12.618V26.309C13.5049 25.7667 14.2388 25.0071 14.7503 24.1021C15.2618 23.1971 15.5339 22.1765 15.541 21.137C15.5443 20.3388 15.3895 19.5479 15.0856 18.8098C14.7817 18.0718 14.3346 17.4012 13.7702 16.8368C13.2058 16.2724 12.5352 15.8253 11.7972 15.5214C11.0591 15.2175 10.2682 15.0627 9.46998 15.066C8.14178 15.0739 6.85235 15.5146 5.79716 16.3213C4.74198 17.128 3.97856 18.2568 3.62264 19.5364C3.26671 20.8161 3.33769 22.1769 3.8248 23.4126C4.31191 24.6482 5.1886 25.6914 6.32198 26.384V29.832H2.57398V5.547C2.56454 5.09797 2.64478 4.65157 2.81002 4.23394C2.97526 3.81631 3.22217 3.43586 3.53628 3.11485C3.8504 2.79384 4.22541 2.53873 4.63936 2.36447C5.0533 2.19021 5.49786 2.1003 5.94698 2.1H25.585L25.584 29.832ZM17.568 9.07H27.159V2.1H28.583C29.3781 2.10185 30.1401 2.41851 30.7023 2.98072C31.2645 3.54293 31.5811 4.30492 31.583 5.1L17.568 9.07Z" stroke="#10AE73" stroke-width="0.2"/>
<path d="M4.67299 6.74701C4.66685 6.8471 4.68205 6.94735 4.71757 7.04112C4.75309 7.1349 4.80812 7.22006 4.87903 7.29097C4.94994 7.36188 5.0351 7.41691 5.12887 7.45243C5.22265 7.48795 5.3229 7.50315 5.42299 7.49701H22.662C22.8609 7.49701 23.0517 7.41799 23.1923 7.27734C23.333 7.13668 23.412 6.94592 23.412 6.74701C23.412 6.5481 23.333 6.35733 23.1923 6.21668C23.0517 6.07603 22.8609 5.99701 22.662 5.99701H5.42299C5.22416 5.99727 5.03355 6.07638 4.89295 6.21697C4.75236 6.35757 4.67325 6.54818 4.67299 6.74701" fill="#10AE73"/>
<path d="M4.67299 6.74701C4.66685 6.8471 4.68205 6.94735 4.71757 7.04112C4.75309 7.1349 4.80812 7.22006 4.87903 7.29097C4.94994 7.36188 5.0351 7.41691 5.12887 7.45243C5.22265 7.48795 5.3229 7.50315 5.42299 7.49701H22.662C22.8609 7.49701 23.0517 7.41799 23.1923 7.27734C23.333 7.13668 23.412 6.94592 23.412 6.74701C23.412 6.5481 23.333 6.35733 23.1923 6.21668C23.0517 6.07603 22.8609 5.99701 22.662 5.99701H5.42299C5.22416 5.99727 5.03355 6.07638 4.89295 6.21697C4.75236 6.35757 4.67325 6.54818 4.67299 6.74701" stroke="#10AE73" stroke-width="0.2"/>
<path d="M22.662 11.618H5.42299C5.22408 11.618 5.03331 11.697 4.89266 11.8377C4.75201 11.9783 4.67299 12.1691 4.67299 12.368C4.67299 12.5669 4.75201 12.7577 4.89266 12.8983C5.03331 13.039 5.22408 13.118 5.42299 13.118H22.662C22.8609 13.118 23.0517 13.039 23.1923 12.8983C23.333 12.7577 23.412 12.5669 23.412 12.368C23.412 12.1691 23.333 11.9783 23.1923 11.8377C23.0517 11.697 22.8609 11.618 22.662 11.618Z" fill="#10AE73" stroke="#10AE73" stroke-width="0.2"/>
</svg>
