<svg width="36" height="36" viewBox="0 0 36 36" fill="none" xmlns="http://www.w3.org/2000/svg">
<path d="M1.77505 1C1.67345 0.999869 1.57283 1.01977 1.47893 1.05855C1.38503 1.09734 1.29969 1.15426 1.22781 1.22605C1.15592 1.29785 1.09889 1.38311 1.05998 1.47696C1.02108 1.57081 1.00105 1.6714 1.00105 1.773L1.00105 11.746C0.999651 11.7703 0.999651 11.7947 1.00105 11.819L1.00105 34.227C1.00105 34.3286 1.02108 34.4292 1.05998 34.523C1.09889 34.6169 1.15592 34.7022 1.22781 34.7739C1.29969 34.8457 1.38503 34.9027 1.47893 34.9414C1.57283 34.9802 1.67345 35.0001 1.77505 35H34.2281C34.4331 35 34.6297 34.9186 34.7746 34.7736C34.9196 34.6286 35.001 34.432 35.001 34.227V11.819C35.001 11.799 35.001 11.779 35.001 11.759V1.773C35.0019 1.58003 34.9306 1.39372 34.801 1.25068C34.6715 1.10764 34.4932 1.01822 34.301 1C34.277 1 34.2531 1 34.2281 1H1.77505ZM2.54805 2.545H33.455V11.045H2.54705L2.54805 2.545ZM6.72505 4.091C6.53285 4.109 6.35437 4.19835 6.2248 4.34144C6.09522 4.48453 6.02396 4.67097 6.02505 4.864V8.728C6.02518 8.82968 6.04537 8.93034 6.08446 9.0242C6.12356 9.11807 6.18078 9.2033 6.25287 9.27501C6.32495 9.34672 6.41048 9.40351 6.50454 9.44212C6.59861 9.48073 6.69937 9.5004 6.80105 9.5H10.661C10.8661 9.5 11.0627 9.41856 11.2076 9.27359C11.3526 9.12863 11.434 8.93201 11.434 8.727V4.864C11.434 4.65899 11.3526 4.46237 11.2076 4.31741C11.0627 4.17244 10.8661 4.091 10.661 4.091H6.80105C6.77705 4.091 6.75205 4.091 6.72805 4.091H6.72505ZM16.07 4.091C15.9685 4.09087 15.8679 4.11077 15.7741 4.14957C15.6802 4.18837 15.595 4.24531 15.5232 4.31711C15.4514 4.38892 15.3944 4.47419 15.3556 4.56803C15.3168 4.66187 15.2969 4.76245 15.297 4.864V8.728C15.297 8.93301 15.3785 9.12963 15.5235 9.27459C15.6684 9.41956 15.865 9.501 16.07 9.501H19.933C20.1381 9.501 20.3347 9.41956 20.4796 9.27459C20.6246 9.12963 20.706 8.93301 20.706 8.728V4.864C20.7069 4.67103 20.6356 4.48472 20.506 4.34168C20.3765 4.19864 20.1982 4.10922 20.006 4.091C19.982 4.091 19.958 4.091 19.933 4.091H16.07V4.091ZM25.342 4.091C25.137 4.091 24.9404 4.17244 24.7955 4.31741C24.6505 4.46237 24.569 4.65899 24.569 4.864V8.728C24.569 8.93301 24.6505 9.12963 24.7955 9.27459C24.9404 9.41956 25.137 9.501 25.342 9.501H29.201C29.4061 9.501 29.6027 9.41956 29.7476 9.27459C29.8926 9.12963 29.974 8.93301 29.974 8.728V4.864C29.9749 4.67103 29.9036 4.48472 29.774 4.34168C29.6445 4.19864 29.4662 4.10922 29.274 4.091C29.25 4.091 29.226 4.091 29.201 4.091H25.342V4.091ZM7.57005 5.636H9.88805V7.954H7.57005V5.636ZM16.842 5.636H19.16V7.954H16.842V5.636ZM26.114 5.636H28.432V7.954H26.114V5.636ZM2.54605 12.591H33.454V33.454H2.54605V12.591ZM15.609 15.291C15.4169 15.3092 15.2386 15.3986 15.1091 15.5417C14.9795 15.6847 14.9082 15.871 14.909 16.064V19.928H11.046C10.841 19.928 10.6444 20.0094 10.4995 20.1544C10.3545 20.2994 10.273 20.496 10.273 20.701V25.337C10.2729 25.4385 10.2928 25.5391 10.3316 25.633C10.3704 25.7268 10.4274 25.8121 10.4992 25.8839C10.571 25.9557 10.6562 26.0126 10.7501 26.0514C10.8439 26.0902 10.9445 26.1101 11.046 26.11H14.909V29.974C14.909 30.179 14.9905 30.3756 15.1355 30.5206C15.2804 30.6656 15.477 30.747 15.682 30.747H20.318C20.5231 30.747 20.7197 30.6656 20.8646 30.5206C21.0096 30.3756 21.091 30.179 21.091 29.974V26.114H24.954C25.0556 26.114 25.1561 26.094 25.2499 26.0552C25.3436 26.0163 25.4289 25.9594 25.5006 25.8876C25.5724 25.8158 25.6294 25.7306 25.6682 25.6368C25.7071 25.543 25.727 25.4425 25.727 25.341V20.7C25.727 20.495 25.6456 20.2984 25.5006 20.1534C25.3557 20.0084 25.1591 19.927 24.954 19.927H21.091V16.068C21.091 15.863 21.0096 15.6664 20.8646 15.5214C20.7197 15.3764 20.5231 15.295 20.318 15.295H15.682C15.658 15.2953 15.6339 15.297 15.61 15.3L15.609 15.291ZM16.454 16.836H19.545V20.7C19.545 20.905 19.6265 21.1016 19.7715 21.2466C19.9164 21.3916 20.113 21.473 20.318 21.473H24.181V24.564H20.319C20.114 24.564 19.9174 24.6454 19.7725 24.7904C19.6275 24.9354 19.546 25.132 19.546 25.337V29.2H16.455V25.341C16.455 25.136 16.3736 24.9394 16.2286 24.7944C16.0837 24.6494 15.8871 24.568 15.682 24.568H11.819V21.477H15.682C15.8871 21.477 16.0837 21.3956 16.2286 21.2506C16.3736 21.1056 16.455 20.909 16.455 20.704L16.454 16.836Z" fill="#10AE73" stroke="#10AE73" stroke-width="0.1"/>
</svg>
