<svg width="38" height="38" viewBox="0 0 38 38" fill="none" xmlns="http://www.w3.org/2000/svg">
<path d="M38 16.1569L34.034 10.3329H24.658V10.1679C24.658 9.29273 24.3103 8.45336 23.6915 7.83449C23.0726 7.21562 22.2332 6.86795 21.358 6.86795H20.449C20.0186 5.08368 19.0005 3.49606 17.5585 2.36052C16.1165 1.22498 14.3344 0.607544 12.499 0.607544C10.6636 0.607544 8.88148 1.22498 7.43948 2.36052C5.99747 3.49606 4.97938 5.08368 4.549 6.86795H0V24.7479C0 25.5147 0.304587 26.25 0.846754 26.7922C1.38892 27.3344 2.12426 27.6389 2.891 27.6389H3.634C3.83475 28.6748 4.38971 29.6085 5.20368 30.2799C6.01764 30.9512 7.03988 31.3184 8.095 31.3184C9.15012 31.3184 10.1724 30.9512 10.9863 30.2799C11.8003 29.6085 12.3553 28.6748 12.556 27.6389H25.9C26.1007 28.6748 26.6557 29.6085 27.4697 30.2799C28.2836 30.9512 29.3059 31.3184 30.361 31.3184C31.4161 31.3184 32.4384 30.9512 33.2523 30.2799C34.0663 29.6085 34.6213 28.6748 34.822 27.6389H38V16.1569ZM12.474 2.19895C13.983 2.19961 15.4451 2.72319 16.6115 3.68058C17.7779 4.63796 18.5765 5.96997 18.8714 7.44989C19.1662 8.9298 18.939 10.4662 18.2286 11.7975C17.5181 13.1287 16.3683 14.1727 14.9747 14.7516C13.5812 15.3305 12.0301 15.4086 10.5855 14.9726C9.14085 14.5366 7.89196 13.6134 7.05138 12.3602C6.21081 11.107 5.8305 9.60122 5.9752 8.09917C6.1199 6.59713 6.78065 5.19164 7.845 4.12195C8.45176 3.51214 9.17309 3.02831 9.96751 2.69829C10.7619 2.36827 11.6138 2.19857 12.474 2.19895V2.19895ZM8.055 29.7049C7.38615 29.7051 6.73794 29.4733 6.22084 29.049C5.70374 28.6248 5.34974 28.0344 5.21915 27.3784C5.08856 26.7224 5.18946 26.0414 5.50467 25.4515C5.81987 24.8616 6.32988 24.3992 6.94778 24.1432C7.56569 23.8871 8.25326 23.8532 8.89334 24.0473C9.53342 24.2414 10.0864 24.6514 10.4581 25.2075C10.8297 25.7636 10.9971 26.4313 10.9316 27.0969C10.8661 27.7626 10.5719 28.3849 10.099 28.8579C9.55693 29.4001 8.82169 29.7048 8.055 29.7049ZM8.055 22.2699C6.99449 22.2714 5.96791 22.6438 5.15315 23.3227C4.3384 24.0016 3.78682 24.9441 3.594 25.9869H2.894C2.73126 25.9871 2.57008 25.9551 2.4197 25.8929C2.26932 25.8307 2.13268 25.7394 2.0176 25.6243C1.90252 25.5093 1.81126 25.3726 1.74905 25.2222C1.68683 25.0719 1.65487 24.9107 1.655 24.7479V8.51595H4.337V8.76395C4.337 10.9329 5.19861 13.013 6.73228 14.5467C8.26595 16.0803 10.3461 16.9419 12.515 16.9419C14.6839 16.9419 16.764 16.0803 18.2977 14.5467C19.8314 13.013 20.693 10.9329 20.693 8.76395V8.51595H21.393C21.6099 8.51595 21.8248 8.55868 22.0252 8.6417C22.2256 8.72472 22.4077 8.8464 22.5611 8.99981C22.7145 9.15321 22.8362 9.33532 22.9192 9.53575C23.0023 9.73618 23.045 9.951 23.045 10.1679V25.9879H12.515C12.3222 24.9451 11.7706 24.0026 10.9558 23.3237C10.1411 22.6448 9.11451 22.2724 8.054 22.2709L8.055 22.2699ZM30.355 37.1399C29.6861 37.1401 29.0379 36.9083 28.5208 36.484C28.0037 36.0598 27.6497 35.4694 27.5191 34.8134C27.3886 34.1574 27.4895 33.4764 27.8047 32.8865C28.1199 32.2966 28.6299 31.8342 29.2478 31.5782C29.8657 31.3221 30.5533 31.2882 31.1933 31.4823C31.8334 31.6764 32.3864 32.0864 32.7581 32.6425C33.1297 33.1986 33.2971 33.8663 33.2316 34.5319C33.1661 35.1976 32.8719 35.8199 32.399 36.2929C31.8569 36.8351 31.1217 37.1398 30.355 37.1399M36.344 33.4229H34.82C34.6193 32.3871 34.0643 31.4534 33.2503 30.782C32.4364 30.1107 31.4141 29.7435 30.359 29.7435C29.3039 29.7435 28.2816 30.1107 27.4677 30.782C26.6537 31.4534 26.0987 32.3871 25.898 33.4229H24.659V19.4229H33.168L36.348 24.0899L36.344 33.4229Z" fill="#10AE73"/>
<path d="M14.043 11.159C14.2073 11.164 14.3694 11.1199 14.5085 11.0324C14.6476 10.9448 14.7574 10.8177 14.8239 10.6674C14.8903 10.517 14.9104 10.3503 14.8816 10.1885C14.8528 10.0266 14.7763 9.87708 14.662 9.75896L13.34 8.43696V5.58696C13.34 5.47848 13.3186 5.37108 13.2771 5.27086C13.2356 5.17065 13.1748 5.07959 13.0981 5.00289C13.0214 4.92619 12.9303 4.86534 12.8301 4.82383C12.7299 4.78232 12.6225 4.76096 12.514 4.76096C12.4055 4.76096 12.2981 4.78232 12.1979 4.82383C12.0977 4.86534 12.0066 4.92619 11.9299 5.00289C11.8532 5.07959 11.7924 5.17065 11.7509 5.27086C11.7094 5.37108 11.688 5.47848 11.688 5.58696V9.08996L13.505 10.907C13.6472 11.0531 13.8385 11.1414 14.042 11.155L14.043 11.159Z" fill="#10AE73"/>
</svg>
