<svg width="34" height="34" viewBox="0 0 34 34" fill="none" xmlns="http://www.w3.org/2000/svg">
<path d="M9.45626 4.97906e-07C9.30739 -0.000137538 9.15996 0.0284266 9.02238 0.0840602C8.88481 0.139694 8.75979 0.221306 8.65448 0.324231C8.54916 0.427157 8.46562 0.549377 8.40862 0.683906C8.35162 0.818435 8.32228 0.962635 8.32228 1.10826V5.37008C7.56609 5.63152 6.92873 6.14607 6.52286 6.82278C6.11699 7.49948 5.96875 8.29476 6.10433 9.06805C6.23991 9.84134 6.65058 10.5428 7.26377 11.0486C7.87695 11.5543 8.65316 11.8317 9.45518 11.8317C10.2572 11.8317 11.0334 11.5543 11.6466 11.0486C12.2598 10.5428 12.6705 9.84134 12.806 9.06805C12.9416 8.29476 12.7934 7.49948 12.3875 6.82278C11.9816 6.14607 11.3443 5.63152 10.5881 5.37008V1.10826C10.5878 0.814418 10.4684 0.532689 10.256 0.32491C10.0436 0.117131 9.75556 0.000278628 9.45518 4.97906e-07H9.45626ZM24.5674 4.97906e-07C24.2669 4.97906e-07 23.9787 0.116763 23.7663 0.324603C23.5538 0.532442 23.4345 0.814333 23.4345 1.10826V5.37008C22.6783 5.63152 22.0409 6.14607 21.635 6.82278C21.2292 7.49948 21.0809 8.29476 21.2165 9.06805C21.3521 9.84134 21.7628 10.5428 22.376 11.0486C22.9891 11.5543 23.7653 11.8317 24.5674 11.8317C25.3694 11.8317 26.1456 11.5543 26.7588 11.0486C27.372 10.5428 27.7826 9.84134 27.9182 9.06805C28.0538 8.29476 27.9056 7.49948 27.4997 6.82278C27.0938 6.14607 26.4565 5.63152 25.7003 5.37008V1.10826C25.7 0.814418 25.5805 0.532689 25.3681 0.32491C25.1557 0.117131 24.8677 0.000278628 24.5674 4.97906e-07V4.97906e-07ZM4.16436 2.21757C3.06126 2.22365 2.00516 2.65523 1.22544 3.41858C0.445719 4.18193 0.00535668 5.2154 0 6.29451L0 29.9231C0.00536383 31.0027 0.44617 32.0367 1.22658 32.8001C2.007 33.5635 3.06392 33.9948 4.16758 34H29.8324C30.9361 33.9948 31.993 33.5635 32.7734 32.8001C33.5538 32.0367 33.9946 31.0027 34 29.9231V6.29451C33.9946 5.21485 33.5538 4.18092 32.7734 3.41748C31.993 2.65404 30.9361 2.22282 29.8324 2.21757H27.5773C27.2758 2.22242 26.9876 2.33992 26.7717 2.54598C26.5559 2.75204 26.4288 3.03106 26.4165 3.32584C26.4288 3.6199 26.5553 3.89832 26.7702 4.10427C26.9851 4.31022 27.2723 4.42819 27.5731 4.4341H29.8281C30.0787 4.4307 30.3274 4.47648 30.5596 4.56872C30.7917 4.66096 31.0027 4.79779 31.1798 4.97113C31.357 5.14447 31.4969 5.35079 31.5912 5.57792C31.6855 5.80504 31.7323 6.04834 31.7288 6.29346V12.5649H2.26688V6.29451C2.26341 6.04939 2.31021 5.80609 2.4045 5.57897C2.49879 5.35185 2.63866 5.14552 2.81586 4.97218C2.99305 4.79884 3.20396 4.66201 3.43613 4.56977C3.6683 4.47753 3.91702 4.43176 4.16758 4.43515H6.42265C6.72205 4.42782 7.00728 4.30891 7.22005 4.10273C7.43282 3.89654 7.55706 3.61864 7.56737 3.32584C7.55679 3.03322 7.43244 2.75558 7.2197 2.54961C7.00695 2.34365 6.72187 2.22489 6.42265 2.21757H4.16436ZM12.463 2.21757C12.1624 2.21757 11.8741 2.33439 11.6616 2.54233C11.449 2.75027 11.3296 3.03229 11.3296 3.32636C11.3296 3.62043 11.449 3.90245 11.6616 4.11039C11.8741 4.31833 12.1624 4.43515 12.463 4.43515H21.5295C21.8301 4.43515 22.1184 4.31833 22.3309 4.11039C22.5435 3.90245 22.6629 3.62043 22.6629 3.32636C22.6629 3.03229 22.5435 2.75027 22.3309 2.54233C22.1184 2.33439 21.8301 2.21757 21.5295 2.21757H12.463ZM9.45626 7.39121C9.68023 7.39142 9.89912 7.45657 10.0853 7.57843C10.2714 7.70028 10.4164 7.87338 10.5021 8.07585C10.5877 8.27831 10.61 8.50106 10.5663 8.71594C10.5225 8.93083 10.4146 9.1282 10.2563 9.28313C10.0979 9.43806 9.89613 9.54359 9.67646 9.58639C9.4568 9.62919 9.2291 9.60733 9.02213 9.52357C8.81517 9.43982 8.63822 9.29794 8.51365 9.11585C8.38909 8.93375 8.32249 8.71963 8.32228 8.50052C8.31996 8.35422 8.34771 8.20895 8.40387 8.07334C8.46004 7.93773 8.54348 7.81453 8.64925 7.71107C8.75501 7.6076 8.88094 7.52598 9.01957 7.47103C9.1582 7.41609 9.3067 7.38894 9.45626 7.39121M24.5674 7.39121C24.7914 7.39121 25.0105 7.45621 25.1968 7.57799C25.3831 7.69977 25.5283 7.87285 25.614 8.07536C25.6998 8.27787 25.7222 8.5007 25.6785 8.71569C25.6348 8.93067 25.5269 9.12814 25.3684 9.28313C25.21 9.43813 25.0081 9.54368 24.7884 9.58644C24.5686 9.6292 24.3408 9.60726 24.1338 9.52337C23.9268 9.43949 23.7499 9.29744 23.6254 9.11519C23.5009 8.93294 23.4345 8.71867 23.4345 8.49947C23.4323 8.35335 23.4601 8.20828 23.5163 8.07286C23.5724 7.93744 23.6558 7.81442 23.7614 7.71109C23.8671 7.60775 23.9928 7.52619 24.1313 7.47125C24.2697 7.41631 24.418 7.38909 24.5674 7.39121M2.26688 14.7824H31.7331V29.9231C31.7366 30.1682 31.6898 30.4115 31.5955 30.6386C31.5012 30.8657 31.3613 31.0721 31.1841 31.2454C31.007 31.4187 30.796 31.5556 30.5639 31.6478C30.3317 31.74 30.083 31.7858 29.8324 31.7824H4.16758C3.91702 31.7858 3.6683 31.74 3.43613 31.6478C3.20396 31.5556 2.99305 31.4187 2.81586 31.2454C2.63866 31.0721 2.49879 30.8657 2.4045 30.6386C2.31021 30.4115 2.26341 30.1682 2.26688 29.9231V14.7824Z" fill="#10AE73"/>
</svg>
