<svg width="36" height="36" viewBox="0 0 36 36" fill="none" xmlns="http://www.w3.org/2000/svg">
<path d="M0.854005 20.062C0.566016 20.1667 0.32453 20.3702 0.172537 20.6363C0.0205444 20.9024 -0.0320899 21.2137 0.0240048 21.515C0.481733 23.5974 1.31135 25.5801 2.473 27.368C2.63717 27.6211 2.88704 27.8066 3.17684 27.8906C3.46664 27.9745 3.77697 27.9512 4.051 27.825C4.51749 27.5976 5.0427 27.5195 5.55516 27.6013C6.06762 27.6831 6.54244 27.9207 6.915 28.282C7.28506 28.6492 7.52877 29.1246 7.61092 29.6394C7.69307 30.1542 7.6094 30.6818 7.372 31.146C7.23588 31.4183 7.20732 31.7319 7.29201 32.0243C7.3767 32.3168 7.56842 32.5666 7.829 32.724C9.61684 33.8857 11.5996 34.7153 13.682 35.173C13.9839 35.238 14.2992 35.1893 14.5674 35.0361C14.8355 34.8829 15.0377 34.6361 15.135 34.343C15.3033 33.8489 15.622 33.4199 16.0464 33.1161C16.4708 32.8124 16.9796 32.649 17.5015 32.649C18.0234 32.649 18.5323 32.8124 18.9567 33.1161C19.3811 33.4199 19.6997 33.8489 19.868 34.343C19.9536 34.5835 20.1109 34.792 20.3187 34.9404C20.5265 35.0888 20.7747 35.17 21.03 35.173C21.1151 35.1796 21.2005 35.1656 21.279 35.132C23.3535 34.6704 25.3333 33.8559 27.132 32.724C27.3851 32.5598 27.5707 32.31 27.6546 32.0202C27.7385 31.7304 27.7152 31.42 27.589 31.146C27.5403 31.0475 27.4726 30.9596 27.3898 30.8874C27.307 30.8152 27.2107 30.7602 27.1064 30.7254C27.0022 30.6906 26.8921 30.6768 26.7826 30.6848C26.673 30.6928 26.5661 30.7225 26.468 30.772C26.3313 30.8324 26.2153 30.9314 26.1341 31.0568C26.0529 31.1822 26.0101 31.3286 26.011 31.478C24.5481 32.3865 22.9512 33.0588 21.279 33.47C20.9617 32.7337 20.4366 32.1059 19.768 31.6634C19.0995 31.2209 18.3165 30.9829 17.5147 30.9784C16.713 30.9739 15.9274 31.2033 15.254 31.6383C14.5805 32.0734 14.0485 32.6953 13.723 33.428C12.0843 33.0342 10.5162 32.39 9.07401 31.518C9.35368 30.7703 9.41234 29.9578 9.243 29.1777C9.07366 28.3975 8.68346 27.6825 8.11896 27.118C7.55445 26.5535 6.83948 26.1633 6.05931 25.994C5.27915 25.8247 4.46674 25.8833 3.719 26.163C2.84399 24.7223 2.19955 23.1537 1.809 21.514C2.52945 21.1694 3.13775 20.628 3.56365 19.9525C3.98956 19.2769 4.21572 18.4946 4.216 17.696C4.2209 16.896 3.99164 16.1121 3.55649 15.4408C3.12133 14.7695 2.49929 14.2401 1.767 13.918C2.16074 12.2793 2.80499 10.7112 3.677 9.26899C4.42464 9.54853 5.2369 9.60713 6.01692 9.43781C6.79693 9.2685 7.5118 8.8784 8.07625 8.31405C8.6407 7.74971 9.03093 7.03492 9.20039 6.25493C9.36985 5.47494 9.3114 4.66268 9.032 3.91499C10.5097 3.00575 12.1205 2.33328 13.806 1.92199C13.9124 2.02861 14.0481 2.10129 14.1958 2.13083C14.3436 2.16038 14.4967 2.14547 14.636 2.08799C14.8396 2.01613 15.0064 1.86662 15.1001 1.67213C15.1938 1.47763 15.2067 1.25396 15.136 1.04999C15.0313 0.762 14.8278 0.520514 14.5617 0.368521C14.2956 0.216528 13.9843 0.163894 13.683 0.219989C11.6075 0.680923 9.6267 1.49511 7.827 2.62699C7.57387 2.79116 7.38835 3.04102 7.30443 3.33082C7.2205 3.62062 7.24378 3.93095 7.37 4.20499C7.60517 4.66951 7.6876 5.19645 7.60552 5.71061C7.52344 6.22476 7.28105 6.69984 6.91294 7.06806C6.54483 7.43628 6.06982 7.67881 5.55569 7.76105C5.04157 7.84328 4.5146 7.76101 4.05 7.52599C3.77769 7.38986 3.46409 7.3613 3.17166 7.44599C2.87923 7.53068 2.62943 7.72241 2.472 7.98299C1.32972 9.80619 0.515118 11.8151 0.0650048 13.919C0.000230081 14.2215 0.0496874 14.5374 0.203852 14.8056C0.358017 15.0739 0.605986 15.2756 0.900005 15.372C1.39445 15.5403 1.82402 15.8587 2.12878 16.2828C2.43354 16.707 2.59828 17.2157 2.6 17.738C2.59053 18.2598 2.41667 18.7653 2.10318 19.1826C1.7897 19.5999 1.35256 19.9076 0.854005 20.062V20.062Z" fill="#10AE73" stroke="#10AE73" stroke-width="0.1"/>
<path d="M17.5 4.41299C18.3 4.41788 19.0839 4.18862 19.7552 3.75347C20.4265 3.31831 20.9559 2.69627 21.278 1.96399C22.9167 2.35776 24.4848 3.002 25.927 3.87399C25.6473 4.62173 25.5887 5.43413 25.758 6.2143C25.9273 6.99446 26.3175 7.70944 26.882 8.27394C27.4465 8.83844 28.1615 9.22864 28.9417 9.39798C29.7218 9.56732 30.5343 9.50866 31.282 9.22899C31.7543 10.0149 32.1703 10.8333 32.527 11.678C32.8245 12.3899 33.0607 13.1259 33.233 13.878C32.5023 14.2141 31.8834 14.7529 31.45 15.4304C31.0166 16.108 30.7868 16.8957 30.788 17.7C30.7831 18.5 31.0124 19.2839 31.4475 19.9552C31.8827 20.6265 32.5047 21.1559 33.237 21.478C32.8433 23.1167 32.199 24.6848 31.327 26.127C30.5799 25.8426 29.7663 25.7815 28.9852 25.951C28.204 26.1206 27.489 26.5135 26.927 27.082C26.848 27.1567 26.7851 27.2468 26.7421 27.3467C26.6991 27.4466 26.6769 27.5542 26.6769 27.663C26.6769 27.7717 26.6991 27.8794 26.7421 27.9792C26.7851 28.0791 26.848 28.1692 26.927 28.244C26.9918 28.3243 27.0742 28.3885 27.1679 28.4317C27.2615 28.4749 27.3639 28.4958 27.467 28.493C27.5755 28.492 27.6827 28.4695 27.7825 28.4267C27.8822 28.384 27.9724 28.3219 28.048 28.244C28.4152 27.8739 28.8906 27.6302 29.4054 27.5481C29.9202 27.4659 30.4478 27.5496 30.912 27.787C31.1843 27.9231 31.4979 27.9517 31.7903 27.867C32.0828 27.7823 32.3326 27.5906 32.49 27.33C33.6561 25.5491 34.4732 23.5629 34.898 21.477C34.963 21.1751 34.9143 20.8598 34.7611 20.5916C34.6079 20.3235 34.3611 20.1213 34.068 20.024C33.5886 19.8545 33.1743 19.5393 32.8831 19.1226C32.5918 18.7058 32.4383 18.2084 32.444 17.7C32.4435 17.1772 32.6073 16.6674 32.9124 16.2428C33.2175 15.8182 33.6483 15.5003 34.144 15.334C34.432 15.2293 34.6735 15.0258 34.8255 14.7597C34.9774 14.4936 35.0301 14.1822 34.974 13.881C34.7657 12.9165 34.4739 11.9719 34.102 11.058C33.6846 9.99502 33.1557 8.97933 32.524 8.02799C32.3598 7.77485 32.11 7.58934 31.8202 7.50541C31.5304 7.42148 31.22 7.44476 30.946 7.57099C30.4814 7.80638 29.9542 7.88894 29.4399 7.80687C28.9255 7.7248 28.4503 7.4823 28.082 7.114C27.7137 6.7457 27.4712 6.27044 27.3891 5.75609C27.307 5.24174 27.3896 4.71461 27.625 4.24999C27.7611 3.97767 27.7897 3.66407 27.705 3.37164C27.6203 3.07922 27.4286 2.82941 27.168 2.67199C25.3649 1.52209 23.3699 0.705453 21.278 0.260987C20.9761 0.195953 20.6608 0.244706 20.3926 0.397889C20.1245 0.551073 19.9223 0.797895 19.825 1.09099C19.664 1.57875 19.3519 2.00259 18.9339 2.30105C18.5158 2.59952 18.0136 2.75711 17.5 2.75099C17.2797 2.75099 17.0685 2.83849 16.9127 2.99423C16.757 3.14998 16.6695 3.36122 16.6695 3.58149C16.6695 3.80175 16.757 4.01299 16.9127 4.16874C17.0685 4.32449 17.2797 4.41199 17.5 4.41199V4.41299Z" fill="#10AE73" stroke="#10AE73" stroke-width="0.1"/>
<path d="M16.711 9.81C14.6808 10.0119 12.8058 10.9866 11.4744 12.5326C10.1429 14.0785 9.45689 16.0772 9.55827 18.115C9.65965 20.1527 10.5407 22.0735 12.019 23.4796C13.4973 24.8858 15.4597 25.6696 17.5 25.669C17.7637 25.676 18.0275 25.6623 18.289 25.628C20.1141 25.4387 21.8178 24.6246 23.1116 23.3235C24.4055 22.0224 25.21 20.3142 25.389 18.488C25.515 17.3178 25.3772 16.1343 24.9857 15.0244C24.5943 13.9145 23.9591 12.9064 23.1269 12.0741C22.2946 11.2419 21.2865 10.6068 20.1766 10.2153C19.0667 9.82382 17.8832 9.68602 16.713 9.812L16.711 9.81ZM23.768 18.361C23.6201 19.7957 22.9825 21.1357 21.9626 22.1556C20.9427 23.1755 19.6027 23.813 18.168 23.961C17.2341 24.0638 16.289 23.9527 15.4044 23.6362C14.5197 23.3197 13.7187 22.806 13.062 22.134C12.4032 21.4679 11.8982 20.6656 11.5825 19.7835C11.2669 18.9014 11.1483 17.9608 11.235 17.028C11.383 15.5933 12.0205 14.2533 13.0404 13.2334C14.0603 12.2135 15.4003 11.5759 16.835 11.428C17.0408 11.3937 17.2495 11.38 17.458 11.387C19.1214 11.3876 20.7175 12.0441 21.9 13.214C22.5702 13.8821 23.085 14.6897 23.4079 15.5792C23.7307 16.4688 23.8537 17.4185 23.768 18.361V18.361Z" fill="#10AE73" stroke="#10AE73" stroke-width="0.1"/>
</svg>
