<svg width="33" height="33" viewBox="0 0 33 33" fill="none" xmlns="http://www.w3.org/2000/svg">
<path d="M22.46 13.611H10.214C10.0773 13.6153 9.94117 13.592 9.81361 13.5427C9.68606 13.4933 9.56972 13.4188 9.47151 13.3237C9.3733 13.2285 9.29521 13.1145 9.24188 12.9886C9.18856 12.8626 9.16109 12.7273 9.16109 12.5905C9.16109 12.4537 9.18856 12.3184 9.24188 12.1924C9.29521 12.0665 9.3733 11.9525 9.47151 11.8573C9.56972 11.7621 9.68606 11.6877 9.81361 11.6383C9.94117 11.5889 10.0773 11.5657 10.214 11.57H22.46C22.5967 11.5657 22.7329 11.5889 22.8605 11.6383C22.988 11.6877 23.1043 11.7621 23.2025 11.8573C23.3008 11.9525 23.3788 12.0665 23.4322 12.1924C23.4855 12.3184 23.513 12.4537 23.513 12.5905C23.513 12.7273 23.4855 12.8626 23.4322 12.9886C23.3788 13.1145 23.3008 13.2285 23.2025 13.3237C23.1043 13.4188 22.988 13.4933 22.8605 13.5427C22.7329 13.592 22.5967 13.6153 22.46 13.611" fill="#10AE73"/>
<path d="M22.46 17.693H10.214C10.0773 17.6973 9.94117 17.6741 9.81361 17.6247C9.68606 17.5753 9.56972 17.5009 9.47151 17.4057C9.3733 17.3105 9.29521 17.1965 9.24188 17.0706C9.18856 16.9447 9.16109 16.8093 9.16109 16.6725C9.16109 16.5358 9.18856 16.4004 9.24188 16.2744C9.29521 16.1485 9.3733 16.0345 9.47151 15.9393C9.56972 15.8442 9.68606 15.7697 9.81361 15.7203C9.94117 15.671 10.0773 15.6477 10.214 15.652H22.46C22.5967 15.6477 22.7329 15.671 22.8605 15.7203C22.988 15.7697 23.1043 15.8442 23.2025 15.9393C23.3008 16.0345 23.3788 16.1485 23.4322 16.2744C23.4855 16.4004 23.513 16.5358 23.513 16.6725C23.513 16.8093 23.4855 16.9447 23.4322 17.0706C23.3788 17.1965 23.3008 17.3105 23.2025 17.4057C23.1043 17.5009 22.988 17.5753 22.8605 17.6247C22.7329 17.6741 22.5967 17.6973 22.46 17.693" fill="#10AE73"/>
<path d="M17.354 21.775H10.214C10.0773 21.7793 9.94117 21.7561 9.81361 21.7067C9.68606 21.6573 9.56972 21.5829 9.47151 21.4877C9.3733 21.3925 9.29521 21.2785 9.24188 21.1526C9.18856 21.0266 9.16109 20.8913 9.16109 20.7545C9.16109 20.6178 9.18856 20.4824 9.24188 20.3564C9.29521 20.2305 9.3733 20.1165 9.47151 20.0213C9.56972 19.9262 9.68606 19.8517 9.81361 19.8023C9.94117 19.753 10.0773 19.7297 10.214 19.734H17.354C17.4907 19.7297 17.6269 19.753 17.7545 19.8023C17.882 19.8517 17.9983 19.9262 18.0966 20.0213C18.1948 20.1165 18.2728 20.2305 18.3262 20.3564C18.3795 20.4824 18.407 20.6178 18.407 20.7545C18.407 20.8913 18.3795 21.0266 18.3262 21.1526C18.2728 21.2785 18.1948 21.3925 18.0966 21.4877C17.9983 21.5829 17.882 21.6573 17.7545 21.7067C17.6269 21.7561 17.4907 21.7793 17.354 21.775" fill="#10AE73"/>
<path d="M16.337 2.385C20.1262 2.385 23.7601 3.89023 26.4395 6.56956C29.1188 9.24889 30.624 12.8828 30.624 16.672C30.624 20.4611 29.1188 24.0951 26.4395 26.7744C23.7601 29.4538 20.1262 30.959 16.337 30.959C14.1338 30.9637 11.96 30.4535 9.98903 29.469L9.37703 29.163L8.68303 29.291L2.81503 30.398L4.16203 25.344L4.38103 24.528L3.95803 23.814C2.7042 21.6417 2.04434 19.1776 2.0448 16.6694C2.04525 14.1612 2.70601 11.6973 3.96063 9.52548C5.21526 7.35363 7.01953 5.55035 9.19207 4.29691C11.3646 3.04348 13.8288 2.38408 16.337 2.385ZM16.337 0.343996C13.4701 0.342497 10.6534 1.09586 8.17003 2.52833C5.68668 3.9608 3.62425 6.02188 2.19016 8.5043C0.756068 10.9867 0.000862881 13.803 0.000488421 16.6699C0.000113961 19.5367 0.754583 22.3532 2.18803 24.836L0.00902678 33.001L9.08103 31.301C11.2857 32.3939 13.7088 32.9745 16.1694 32.9992C18.63 33.0239 21.0643 32.4921 23.2905 31.4437C25.5166 30.3952 27.477 28.8571 29.0251 26.9444C30.5732 25.0317 31.6689 22.7939 32.2305 20.3981C32.792 18.0024 32.8048 15.5107 32.2679 13.1093C31.731 10.7079 30.6582 8.45887 29.1299 6.53038C27.6015 4.6019 25.657 3.04379 23.4417 1.97253C21.2265 0.901268 18.7977 0.344553 16.337 0.343996V0.343996Z" fill="#10AE73"/>
</svg>
