<svg width="28" height="34" viewBox="0 0 28 34" fill="none" xmlns="http://www.w3.org/2000/svg">
<path d="M4.33703 4.27898H19.356C19.4814 4.26313 19.6086 4.28479 19.7216 4.34121C19.8346 4.39763 19.9284 4.48629 19.991 4.59598L21.155 5.65398V2.69298H1.80003V28.713H3.49103V5.23198C3.48519 4.99564 3.56929 4.76589 3.72633 4.58918C3.88337 4.41246 4.10164 4.30195 4.33703 4.27998V4.27898ZM22.846 7.45198L27.077 11.577C27.1946 11.77 27.2671 11.987 27.289 12.212V33.154C27.2906 33.2655 27.2699 33.3763 27.2279 33.4796C27.186 33.583 27.1237 33.6769 27.0448 33.7558C26.966 33.8347 26.8721 33.8969 26.7687 33.9389C26.6653 33.9808 26.5546 34.0016 26.443 34H4.33703C4.22548 34.0016 4.11475 33.9808 4.01137 33.9389C3.908 33.8969 3.81409 33.8347 3.73521 33.7558C3.65633 33.6769 3.59407 33.583 3.55213 33.4796C3.51019 33.3763 3.48941 33.2655 3.49103 33.154V30.4H0.846027C0.734822 30.4016 0.624419 30.3809 0.521315 30.3392C0.418211 30.2975 0.324487 30.2356 0.245659 30.1572C0.166832 30.0787 0.104492 29.9853 0.0623078 29.8824C0.0201239 29.7795 -0.00105184 29.6692 2.65724e-05 29.558V1.84598C-0.00159028 1.73443 0.0191878 1.62369 0.0611308 1.52032C0.103074 1.41695 0.165329 1.32304 0.244212 1.24416C0.323095 1.16528 0.417001 1.10302 0.520373 1.06108C0.623745 1.01914 0.734481 0.998359 0.846027 0.999976H22C22.1137 0.989515 22.2284 1.00421 22.3358 1.04303C22.4431 1.08185 22.5407 1.14383 22.6214 1.22458C22.7022 1.30532 22.7642 1.40285 22.803 1.51025C22.8418 1.61764 22.8565 1.73226 22.846 1.84598V7.45198ZM19.039 6.07698H5.18303V32.308H25.49V12.529L19.039 6.07798V6.07698Z" fill="#10AE73"/>
<path d="M18.937 4.34998H19.36C19.5912 4.34994 19.8132 4.44081 19.978 4.60298L27.065 11.584C27.1483 11.666 27.2145 11.7637 27.2596 11.8715C27.3048 11.9794 27.328 12.0951 27.328 12.212V12.741C27.328 12.9746 27.2352 13.1987 27.07 13.3639C26.9048 13.5292 26.6807 13.622 26.447 13.622H18.937C18.7034 13.622 18.4793 13.5292 18.3141 13.3639C18.1488 13.1987 18.056 12.9746 18.056 12.741V5.23098C18.056 4.99732 18.1488 4.77324 18.3141 4.60802C18.4793 4.4428 18.7034 4.34998 18.937 4.34998ZM24.837 11.86L19.822 6.91998V11.86H24.837Z" fill="#10AE73"/>
<path d="M9.73103 19.087C9.61148 19.1012 9.49025 19.09 9.37535 19.054C9.26045 19.018 9.15449 18.958 9.06445 18.8781C8.97441 18.7982 8.90234 18.7 8.85298 18.5902C8.80362 18.4804 8.77809 18.3614 8.77809 18.241C8.77809 18.1205 8.80362 18.0015 8.85298 17.8917C8.90234 17.7819 8.97441 17.6837 9.06445 17.6038C9.15449 17.5239 9.26045 17.4639 9.37535 17.4279C9.49025 17.3919 9.61148 17.3807 9.73103 17.3949H21.048C21.2724 17.3949 21.4876 17.4841 21.6462 17.6427C21.8049 17.8014 21.894 18.0166 21.894 18.241C21.894 18.4653 21.8049 18.6805 21.6462 18.8392C21.4876 18.9978 21.2724 19.087 21.048 19.087H9.73103Z" fill="#10AE73"/>
<path d="M9.73103 23.952C9.60586 23.9525 9.48182 23.9282 9.36608 23.8806C9.25034 23.8329 9.14519 23.7628 9.05668 23.6743C8.96817 23.5858 8.89807 23.4807 8.85041 23.3649C8.80276 23.2492 8.7785 23.1251 8.77903 23C8.80077 22.7645 8.91121 22.5461 9.08798 22.389C9.26474 22.2319 9.49462 22.1479 9.73103 22.154H21.048C21.1596 22.1524 21.2703 22.1731 21.3737 22.2151C21.4771 22.257 21.571 22.3193 21.6498 22.3982C21.7287 22.477 21.791 22.5709 21.8329 22.6743C21.8749 22.7777 21.8956 22.8884 21.894 23C21.9062 23.1191 21.8936 23.2395 21.8568 23.3535C21.82 23.4674 21.7599 23.5725 21.6804 23.662C21.6008 23.7515 21.5035 23.8235 21.3947 23.8734C21.2858 23.9234 21.1678 23.9501 21.048 23.952H9.73103Z" fill="#10AE73"/>
<path d="M9.73103 28.606C9.60586 28.6065 9.48182 28.5823 9.36608 28.5346C9.25034 28.4869 9.14519 28.4168 9.05668 28.3283C8.96817 28.2398 8.89807 28.1347 8.85041 28.0189C8.80276 27.9032 8.7785 27.7792 8.77903 27.654C8.80077 27.4185 8.91121 27.2001 9.08798 27.043C9.26474 26.8859 9.49462 26.8019 9.73103 26.808H21.048C21.1596 26.8064 21.2703 26.8271 21.3737 26.8691C21.4771 26.911 21.571 26.9733 21.6498 27.0521C21.7287 27.131 21.791 27.225 21.8329 27.3283C21.8749 27.4317 21.8956 27.5424 21.894 27.654C21.9062 27.7731 21.8936 27.8935 21.8568 28.0074C21.82 28.1214 21.7599 28.2265 21.6804 28.316C21.6008 28.4055 21.5035 28.4775 21.3947 28.5275C21.2858 28.5774 21.1678 28.6041 21.048 28.606H9.73103Z" fill="#10AE73"/>
<path d="M9.73103 13.904C9.49469 13.9098 9.26495 13.8257 9.08823 13.6687C8.91152 13.5116 8.801 13.2934 8.77903 13.058C8.7785 12.9328 8.80276 12.8088 8.85041 12.693C8.89807 12.5773 8.96817 12.4721 9.05668 12.3836C9.14519 12.2951 9.25034 12.225 9.36608 12.1774C9.48182 12.1297 9.60586 12.1055 9.73103 12.106H12.903C13.1385 12.1277 13.3569 12.2382 13.514 12.4149C13.6711 12.5917 13.7551 12.8216 13.749 13.058C13.7341 13.2774 13.6401 13.484 13.4846 13.6396C13.3291 13.7951 13.1225 13.889 12.903 13.904H9.73103Z" fill="#10AE73"/>
</svg>
