<svg width="48" height="48" viewBox="0 0 48 48" fill="none" xmlns="http://www.w3.org/2000/svg">
<g clip-path="url(#clip0_7_7)">
<path d="M39.4031 40.1819C39.3556 39.9387 39.3542 39.6881 39.399 39.4443C39.4437 39.2006 39.5338 38.9685 39.6639 38.7615C39.794 38.5545 39.9617 38.3765 40.1574 38.2379C40.353 38.0992 40.5727 38.0026 40.8039 37.9535C42.6351 37.5609 43.8791 36.9093 44.2075 36.1783C44.3325 35.9022 44.3973 35.6002 44.3973 35.2944C44.3973 34.9885 44.3325 34.6865 44.2075 34.4104C43.8692 33.6701 42.6322 33.0279 40.8138 32.6519C39.6104 32.3694 38.3883 32.1834 37.1582 32.0954C36.9229 32.0789 36.693 32.0138 36.4817 31.9037C36.2703 31.7937 36.0817 31.6408 35.9265 31.4539C35.7713 31.267 35.6527 31.0497 35.5774 30.8145C35.5021 30.5793 35.4716 30.3308 35.4876 30.0831C35.5257 29.5846 35.7477 29.1215 36.1061 28.793C36.4645 28.4645 36.9308 28.2968 37.4052 28.3257C38.8006 28.426 40.187 28.6354 41.5528 28.9523C44.5884 29.5788 46.5874 30.8684 47.4564 32.7825C47.8132 33.5646 47.9984 34.421 47.9984 35.2886C47.9984 36.1562 47.8132 37.0127 47.4564 37.7948C46.5993 39.69 44.6033 40.987 41.5241 41.6501C41.4042 41.6751 41.2822 41.6877 41.16 41.6876C40.7473 41.6876 40.3473 41.5378 40.0273 41.2635C39.7073 40.9892 39.4869 40.6072 39.4031 40.1819ZM31.8439 21.1884C31.845 20.6869 32.0351 20.2062 32.3725 19.8521C32.7098 19.4979 33.167 19.2991 33.6435 19.2994C35.2594 19.2994 36.8092 18.6237 37.9519 17.4209C39.0945 16.2181 39.7365 14.5868 39.7365 12.8858C39.7365 11.1848 39.0945 9.55343 37.9519 8.35063C36.8092 7.14784 35.2594 6.47212 33.6435 6.47212C33.4043 6.47804 33.1664 6.43357 32.9439 6.34133C32.7213 6.24908 32.5184 6.11092 32.3473 5.93498C32.1762 5.75903 32.0402 5.54884 31.9474 5.31677C31.8545 5.08471 31.8067 4.83544 31.8067 4.58364C31.8067 4.33183 31.8545 4.08257 31.9474 3.8505C32.0402 3.61843 32.1762 3.40824 32.3473 3.2323C32.5184 3.05635 32.7213 2.91819 32.9439 2.82595C33.1664 2.7337 33.4043 2.68923 33.6435 2.69515C34.9231 2.68152 36.1926 2.93505 37.3786 3.44109C38.5646 3.94712 39.6436 4.69563 40.553 5.64332C41.4625 6.591 42.1845 7.71907 42.6772 8.96229C43.1699 10.2055 43.4236 11.5392 43.4236 12.8863C43.4236 14.2334 43.1699 15.5671 42.6772 16.8103C42.1845 18.0535 41.4625 19.1816 40.553 20.1293C39.6436 21.077 38.5646 21.8255 37.3786 22.3315C36.1926 22.8375 34.9231 23.0911 33.6435 23.0774C33.167 23.0777 32.7098 22.8789 32.3725 22.5248C32.0351 22.1706 31.845 21.69 31.8439 21.1884V21.1884Z" fill="#134574"/>
<path d="M18.2195 30.1082C13.7127 30.1082 0 30.1082 0 39.0802C0 41.0945 0.760881 43.892 4.3778 45.756C5.66106 46.3857 7.01166 46.8506 8.40045 47.1406C8.63224 47.1962 8.87222 47.2027 9.10644 47.1598C9.34066 47.117 9.56445 47.0255 9.76482 46.8908C9.96518 46.7562 10.1381 46.5809 10.2736 46.3753C10.4091 46.1696 10.5044 45.9377 10.554 45.693C10.6036 45.4483 10.6066 45.1956 10.5626 44.9497C10.5187 44.7037 10.4288 44.4694 10.2981 44.2604C10.1674 44.0513 9.99857 43.8717 9.80138 43.7319C9.60419 43.5921 9.38258 43.495 9.14942 43.4461C8.04924 43.2213 6.97898 42.857 5.96206 42.3612C3.86889 41.2814 3.60005 40.043 3.60005 39.0802C3.60005 34.7843 11.5511 33.8852 18.2205 33.8852C27.9205 33.8852 32.8379 35.6176 32.8379 39.0301C32.8379 43.324 24.8898 44.223 18.2205 44.223C17.9813 44.2171 17.7435 44.2616 17.5209 44.3538C17.2983 44.4461 17.0955 44.5842 16.9243 44.7602C16.7532 44.9361 16.6172 45.1463 16.5244 45.3784C16.4315 45.6104 16.3837 45.8597 16.3837 46.1115C16.3837 46.3633 16.4315 46.6126 16.5244 46.8447C16.6172 47.0767 16.7532 47.2869 16.9243 47.4629C17.0955 47.6388 17.2983 47.777 17.5209 47.8692C17.7435 47.9615 17.9813 48.0059 18.2205 48C22.7253 48 36.438 48 36.438 39.0301C36.437 31.0324 26.0406 30.1082 18.2195 30.1082Z" fill="#119273"/>
<path d="M7.69611 14.8197C8.17268 14.8202 8.62995 14.6216 8.9674 14.2673C9.30485 13.9131 9.49485 13.4323 9.49564 12.9307C9.50002 10.8675 10.1679 8.86676 11.3905 7.25422C12.6131 5.64167 14.3184 4.51239 16.2286 4.0503C18.1388 3.58822 20.1414 3.82056 21.9101 4.70948C23.6788 5.59841 25.1095 7.09154 25.9691 8.94566C26.8287 10.7998 27.0666 12.9057 26.644 14.9203C26.2214 16.9349 25.1632 18.7395 23.6418 20.0402C22.1204 21.3409 20.2255 22.0611 18.2656 22.0834C16.3057 22.1057 14.3964 21.4288 12.8487 20.163C12.6626 20.0102 12.4498 19.8975 12.2224 19.8313C11.995 19.7651 11.7575 19.7467 11.5233 19.7772C11.2891 19.8076 11.063 19.8863 10.8577 20.0088C10.6524 20.1312 10.4721 20.2951 10.327 20.4909C10.1818 20.6867 10.0748 20.9107 10.0119 21.1501C9.94899 21.3894 9.93151 21.6395 9.96044 21.886C9.98936 22.1325 10.0641 22.3706 10.1805 22.5866C10.2968 22.8027 10.4524 22.9925 10.6384 23.1453C12.8305 24.9409 15.5357 25.9018 18.313 25.8716C21.0904 25.8413 23.7761 24.8215 25.9323 22.9786C28.0885 21.1356 29.588 18.5781 30.1864 15.7231C30.7847 12.868 30.4466 9.88384 29.2272 7.257C28.0077 4.63017 25.9789 2.51563 23.4714 1.25813C20.9639 0.000629361 18.1257 -0.325659 15.4195 0.332458C12.7132 0.990576 10.2986 2.59428 8.56925 4.88212C6.83989 7.16996 5.8978 10.007 5.89658 12.9307C5.89737 13.4323 6.08737 13.9131 6.42482 14.2673C6.76227 14.6216 7.21954 14.8202 7.69611 14.8197" fill="#119273"/>
</g>
<defs>
<clipPath id="clip0_7_7">
<rect width="48" height="48" fill="white"/>
</clipPath>
</defs>
</svg>
