<svg width="17" height="20" viewBox="0 0 17 20" fill="none" xmlns="http://www.w3.org/2000/svg">
<g clip-path="url(#clip0_14_2)">
<path d="M7.514 19.683L7.454 19.635L7.041 19.357C5.32446 18.1737 3.79598 16.7386 2.507 15.1L2.191 14.687C0.835863 12.9126 0.0697546 10.7586 0 8.527L0 8.242C0.0700823 6.03367 0.996086 3.93913 2.58228 2.40108C4.16848 0.863026 6.29056 0.00200304 8.5 0L8.529 0H8.785C10.9974 0.0782201 13.0924 1.01492 14.626 2.61154C16.1595 4.20817 17.011 6.33922 17 8.553V8.653C16.95 11.293 15.663 14.022 13.28 16.545C12.1545 17.7166 10.8979 18.7548 9.535 19.639L9.485 19.68C9.19772 19.8866 8.85283 19.9977 8.499 19.9977C8.14517 19.9977 7.80028 19.8866 7.513 19.68L7.514 19.683ZM8.284 1.521C6.47109 1.58033 4.75199 2.34108 3.48893 3.64294C2.22587 4.9448 1.51747 6.68612 1.513 8.5L1.532 8.857C1.66252 10.6423 2.31178 12.3506 3.4 13.772C4.7497 15.5819 6.40853 17.1392 8.3 18.372L8.382 18.434C8.41497 18.4628 8.45724 18.4786 8.501 18.4786C8.54476 18.4786 8.58703 18.4628 8.62 18.434L8.705 18.37C9.97219 17.5504 11.1406 16.5874 12.187 15.5C14.303 13.26 15.444 10.888 15.487 8.642V8.31C15.4329 6.49685 14.677 4.77551 13.3787 3.5087C12.0803 2.2419 10.3409 1.52856 8.527 1.519L8.284 1.521ZM5.261 8.649C5.26357 8.00919 5.45563 7.38447 5.81294 6.85372C6.17025 6.32297 6.67679 5.90997 7.26862 5.66686C7.86045 5.42374 8.51104 5.36141 9.13827 5.48774C9.76549 5.61406 10.3412 5.92337 10.7928 6.37663C11.2444 6.82988 11.5516 7.40676 11.6756 8.03445C11.7996 8.66214 11.7348 9.31249 11.4895 9.90342C11.2442 10.4943 10.8294 10.9994 10.2973 11.3547C9.76524 11.71 9.13982 11.8998 8.5 11.9C7.63954 11.8979 6.8151 11.5543 6.20778 10.9447C5.60046 10.3352 5.25994 9.50947 5.261 8.649ZM6.774 8.649C6.77519 8.98987 6.87734 9.32275 7.06756 9.60561C7.25778 9.88848 7.52754 10.1086 7.84279 10.2383C8.15803 10.368 8.50463 10.4013 8.83883 10.3342C9.17302 10.267 9.47983 10.1024 9.72051 9.86099C9.9612 9.61961 10.125 9.31233 10.1912 8.97794C10.2573 8.64356 10.223 8.29706 10.0924 7.98218C9.96182 7.66731 9.74087 7.39819 9.45746 7.20879C9.17405 7.01939 8.84087 6.9182 8.5 6.918C8.0417 6.91906 7.60254 7.10193 7.27894 7.42647C6.95533 7.75101 6.77373 8.19069 6.774 8.649Z" fill="#10AE73"/>
</g>
<defs>
<clipPath id="clip0_14_2">
<rect width="17" height="20.001" fill="white"/>
</clipPath>
</defs>
</svg>
