<svg xmlns="http://www.w3.org/2000/svg" width="17" height="20.001" viewBox="0 0 17 20.001">
  <path id="Location" d="M7.514,19.683l-.06-.048-.413-.278A20.758,20.758,0,0,1,2.507,15.1l-.316-.413A10.7,10.7,0,0,1,0,8.527l0-.285A8.512,8.512,0,0,1,8.5,0h.029l.256,0A8.516,8.516,0,0,1,17,8.553v.1c-.05,2.64-1.337,5.369-3.72,7.892a21.171,21.171,0,0,1-3.745,3.094l-.05.041a1.689,1.689,0,0,1-1.972,0ZM8.284,1.521A7,7,0,0,0,1.513,8.5l.019.357A9.187,9.187,0,0,0,3.4,13.772a19.17,19.17,0,0,0,4.9,4.6l.082.062a.181.181,0,0,0,.238,0l.085-.064A19.618,19.618,0,0,0,12.187,15.5c2.116-2.24,3.257-4.612,3.3-6.858l0-.332a7,7,0,0,0-6.96-6.791ZM5.261,8.649A3.238,3.238,0,1,1,8.5,11.9,3.247,3.247,0,0,1,5.261,8.649Zm1.513,0A1.725,1.725,0,1,0,8.5,6.918,1.73,1.73,0,0,0,6.774,8.649Z" fill="#200e32"/>
</svg>
