<svg width="187" height="68" viewBox="0 0 187 68" fill="none" xmlns="http://www.w3.org/2000/svg">
<path d="M26.152 51.984C28.0013 54.6879 29.1255 57.8212 29.417 61.084C33.9804 60.3072 38.1224 57.9423 41.1108 54.4071C44.0992 50.8719 45.7417 46.3941 45.748 41.765V39.53C40.842 39.842 35.333 42.418 30.808 46.556C29.0343 48.1627 27.47 49.9864 26.152 51.984Z" fill="#1F78BD"/>
<path d="M22.887 61.0819C25.048 61.4513 27.256 61.4513 29.417 61.0819C29.1255 57.8192 28.0013 54.6858 26.152 51.9819C24.3028 54.6858 23.1786 57.8192 22.887 61.0819Z" fill="#1F78BD"/>
<path d="M26.152 51.9841C24.8342 49.9861 23.2698 48.162 21.496 46.5551C16.971 42.4171 11.461 39.8411 6.55603 39.5291V41.7641C6.5557 43.2449 6.72344 44.721 7.05603 46.1641H7.08304L7.06104 46.1811C8.18252 51.0475 11.1218 55.3012 15.2772 58.0712C19.4326 60.8412 24.4896 61.918 29.413 61.0811C29.1221 57.8197 27.9993 54.6875 26.152 51.9841Z" fill="url(#paint0_linear_1_294)"/>
<path d="M26.152 67.916C19.2158 67.902 12.5682 65.138 7.66676 60.2302C2.76531 55.3224 0.0100068 48.6712 0.00499089 41.735V27.097C-0.0378185 23.6357 0.606947 20.2004 1.9019 16.9902C3.19686 13.78 5.11625 10.8588 7.54875 8.39603C9.98125 5.93326 12.8785 3.9779 16.0724 2.64334C19.2663 1.30878 22.6935 0.621582 26.155 0.621582C29.6166 0.621582 33.0437 1.30878 36.2376 2.64334C39.4315 3.9779 42.3287 5.93326 44.7612 8.39603C47.1937 10.8588 49.1131 13.78 50.4081 16.9902C51.7031 20.2004 52.3478 23.6357 52.305 27.097V41.735C52.3 48.6722 49.5439 55.3243 44.6411 60.2323C39.7384 65.1403 33.0892 67.9036 26.152 67.916ZM26.152 7.48001C20.953 7.48769 15.9694 9.55762 12.2948 13.2356C8.62028 16.9135 6.5549 21.899 6.55199 27.098V41.735C6.49608 44.3437 6.9616 46.9372 7.92125 49.3636C8.8809 51.79 10.3154 54.0003 12.1405 55.865C13.9657 57.7297 16.1448 59.2112 18.55 60.2226C20.9553 61.234 23.5383 61.755 26.1475 61.755C28.7568 61.755 31.3398 61.234 33.745 60.2226C36.1503 59.2112 38.3293 57.7297 40.1545 55.865C41.9796 54.0003 43.4141 51.79 44.3737 49.3636C45.3334 46.9372 45.7989 44.3437 45.743 41.735V27.097C45.7398 21.8997 43.6756 16.9159 40.003 13.2384C36.3304 9.56092 31.3493 7.49007 26.152 7.48001Z" fill="url(#paint1_linear_1_294)"/>
<path d="M21.716 19.4469C21.6641 18.1425 22.1237 16.8693 22.997 15.8989C23.3992 15.4639 23.887 15.1167 24.4297 14.8793C24.9725 14.6419 25.5586 14.5193 26.151 14.5193C26.7435 14.5193 27.3295 14.6419 27.8723 14.8793C28.4151 15.1167 28.9029 15.4639 29.305 15.8989C30.178 16.8696 30.6376 18.1426 30.586 19.4469V23.6349H34.775C36.0794 23.5835 37.3524 24.0431 38.323 24.9159C38.7581 25.3181 39.1053 25.8059 39.3427 26.3486C39.5801 26.8914 39.7027 27.4775 39.7027 28.0699C39.7027 28.6624 39.5801 29.2484 39.3427 29.7912C39.1053 30.334 38.7581 30.8218 38.323 31.2239C37.3525 32.097 36.0794 32.5567 34.775 32.5049H30.586V36.6939C30.638 37.9984 30.1783 39.2715 29.305 40.2419C28.903 40.6771 28.4152 41.0244 27.8724 41.2619C27.3296 41.4994 26.7435 41.6221 26.151 41.6221C25.5585 41.6221 24.9725 41.4994 24.4297 41.2619C23.8869 41.0244 23.3991 40.6771 22.997 40.2419C22.1232 39.2719 21.6634 37.9985 21.716 36.6939V32.5049H17.529C16.2245 32.557 14.9514 32.0973 13.981 31.2239C13.546 30.8218 13.1988 30.334 12.9614 29.7912C12.724 29.2484 12.6014 28.6624 12.6014 28.0699C12.6014 27.4775 12.724 26.8914 12.9614 26.3486C13.1988 25.8059 13.546 25.3181 13.981 24.9159C14.9515 24.0428 16.2246 23.5832 17.529 23.6349H21.718L21.716 19.4469Z" fill="#134574"/>
<path d="M69.246 36.988C68.8527 37.0226 68.4574 36.9506 68.1014 36.7798C67.7455 36.6089 67.4421 36.3455 67.223 36.017C67.0233 35.6566 66.9218 35.2501 66.9289 34.8381C66.9359 34.4262 67.0511 34.0233 67.263 33.67L77.9461 9.99697C78.2072 9.32992 78.6486 8.7486 79.221 8.31797C79.7294 7.97792 80.3295 7.80137 80.941 7.81197C81.5392 7.8056 82.125 7.98215 82.62 8.31797C83.1923 8.74882 83.6337 9.33007 83.8951 9.99697L94.6191 33.67C94.8297 34.0262 94.9475 34.4296 94.9616 34.8431C94.9758 35.2567 94.8858 35.6672 94.7 36.037C94.4949 36.3585 94.2051 36.6174 93.8626 36.7851C93.52 36.9529 93.1378 37.0231 92.758 36.988C92.1244 37.027 91.4984 36.8327 90.9981 36.442C90.5071 35.9714 90.127 35.3975 89.885 34.762L87.861 30.068H73.941L71.961 34.758C71.7101 35.3898 71.3393 35.9671 70.8691 36.458C70.4161 36.8363 69.835 37.0261 69.246 36.988ZM80.861 13.758L75.7221 25.939H86.081L80.941 13.758H80.861Z" fill="#134574"/>
<path d="M114.689 36.989C113.016 36.989 112.18 36.1256 112.18 34.399V20.843H105.948V23.149C106.067 26.1786 105.592 29.2023 104.548 32.049C104.135 33.0824 103.519 34.0229 102.738 34.8151C101.956 35.6073 101.024 36.2352 99.996 36.6619C99.4034 36.9513 98.7205 36.9948 98.096 36.7829C97.5778 36.589 97.1511 36.2079 96.9 35.715C96.7586 35.4514 96.6731 35.1615 96.6488 34.8635C96.6246 34.5654 96.662 34.2655 96.7589 33.9825C96.8557 33.6996 97.0099 33.4397 97.2118 33.219C97.4136 32.9983 97.6588 32.8216 97.932 32.7C98.5887 32.3271 99.1648 31.8274 99.6267 31.23C100.089 30.6326 100.427 29.9494 100.623 29.22C101.126 27.1823 101.35 25.0859 101.29 22.988V19.7099C101.234 19.325 101.269 18.9323 101.392 18.5631C101.514 18.1939 101.721 17.8584 101.996 17.5833C102.271 17.3082 102.607 17.1011 102.976 16.9785C103.345 16.8559 103.738 16.8211 104.123 16.877H114.402C114.787 16.8211 115.18 16.8559 115.549 16.9785C115.918 17.1011 116.254 17.3082 116.529 17.5833C116.804 17.8584 117.011 18.1939 117.133 18.5631C117.256 18.9323 117.291 19.325 117.235 19.7099V34.399C117.287 34.7473 117.258 35.103 117.149 35.4381C117.041 35.7731 116.855 36.0783 116.608 36.3295C116.362 36.5807 116.06 36.771 115.726 36.8855C115.393 36.9999 115.038 37.0354 114.689 36.989Z" fill="#134574"/>
<path d="M125.493 36.665C125.152 36.7138 124.805 36.6826 124.478 36.5737C124.151 36.4649 123.854 36.2815 123.611 36.038C123.368 35.7945 123.184 35.4977 123.075 35.171C122.966 34.8443 122.935 34.4968 122.984 34.156V19.103C122.984 18.4322 123.251 17.789 123.725 17.3147C124.199 16.8404 124.842 16.574 125.513 16.574C126.184 16.574 126.827 16.8404 127.301 17.3147C127.776 17.789 128.042 18.4322 128.042 19.103V23.433H133.262C135.879 23.433 137.855 23.9859 139.19 25.0919C139.873 25.6941 140.409 26.4452 140.755 27.2871C141.102 28.1291 141.251 29.0394 141.19 29.948C141.225 30.868 141.052 31.7841 140.684 32.6282C140.316 33.4723 139.763 34.2228 139.066 34.824C137.422 36.1288 135.355 36.7843 133.259 36.666L125.493 36.665ZM128.042 33.347H132.493C133.543 33.4116 134.584 33.1195 135.447 32.518C135.809 32.209 136.093 31.8188 136.276 31.3794C136.459 30.9399 136.535 30.4635 136.499 29.989C136.535 29.5262 136.459 29.0615 136.275 28.635C136.092 28.2085 135.808 27.833 135.447 27.541C134.573 26.9657 133.537 26.6889 132.493 26.752H128.043L128.042 33.347Z" fill="#134574"/>
<path d="M147.911 36.9891C147.562 37.036 147.206 37.0009 146.873 36.8867C146.539 36.7725 146.237 36.5822 145.989 36.331C145.742 36.0797 145.557 35.7743 145.448 35.439C145.339 35.1037 145.31 34.7477 145.362 34.3991V19.0991C145.362 18.4284 145.628 17.7851 146.103 17.3108C146.577 16.8365 147.22 16.5701 147.891 16.5701C148.562 16.5701 149.205 16.8365 149.679 17.3108C150.154 17.7851 150.42 18.4284 150.42 19.0991V24.5211H159.161V19.0991C159.161 18.4282 159.427 17.7848 159.902 17.3105C160.376 16.8361 161.02 16.5696 161.69 16.5696C162.361 16.5696 163.005 16.8361 163.479 17.3105C163.953 17.7848 164.22 18.4282 164.22 19.0991V34.3991C164.272 34.7477 164.243 35.1037 164.134 35.439C164.025 35.7743 163.84 36.0797 163.593 36.331C163.345 36.5822 163.043 36.7725 162.709 36.8867C162.376 37.0009 162.02 37.036 161.671 36.9891C159.998 36.9891 159.161 36.1257 159.162 34.3991V28.4911H150.421V34.3991C150.42 36.1257 149.583 36.9891 147.911 36.9891Z" fill="#134574"/>
<path d="M176.519 37.069C175.197 37.0925 173.888 36.8084 172.695 36.239C171.634 35.7372 170.727 34.9619 170.065 33.993C169.43 33.0478 169.098 31.9316 169.114 30.793C169.045 29.5385 169.45 28.3039 170.247 27.333C171.253 26.3518 172.54 25.7083 173.929 25.492C176.183 25.0653 178.475 24.8756 180.768 24.926H182.184V24.076C182.282 23.0254 181.963 21.9784 181.294 21.162C180.45 20.4857 179.375 20.1662 178.299 20.272C177.449 20.2797 176.601 20.3745 175.77 20.555C174.786 20.7712 173.829 21.0972 172.917 21.527C172.674 21.67 172.401 21.7536 172.12 21.7709C171.838 21.7883 171.557 21.739 171.298 21.627C171.085 21.515 170.898 21.3602 170.749 21.1722C170.599 20.9843 170.49 20.7673 170.428 20.535C170.28 20.0348 170.308 19.4986 170.509 19.017C170.622 18.7512 170.791 18.5125 171.004 18.3171C171.216 18.1217 171.469 17.9741 171.743 17.884C172.896 17.3981 174.096 17.0318 175.324 16.791C176.357 16.587 177.407 16.4788 178.46 16.468C181.346 16.468 183.491 17.1347 184.894 18.468C186.297 19.8014 186.997 21.8717 186.994 24.679V34.391C186.994 36.1177 186.212 36.981 184.647 36.981C183.055 36.981 182.259 36.1177 182.259 34.391V33.501C181.823 34.5792 181.059 35.4925 180.074 36.111C179.006 36.7659 177.772 37.0986 176.519 37.069ZM177.571 33.589C178.187 33.6052 178.799 33.4909 179.368 33.2538C179.937 33.0166 180.449 32.662 180.871 32.213C181.309 31.7485 181.651 31.2018 181.877 30.6046C182.102 30.0073 182.207 29.3712 182.186 28.733V27.843H180.81C179.029 27.7463 177.245 27.9447 175.529 28.43C175.083 28.5723 174.697 28.8577 174.43 29.2419C174.163 29.6261 174.03 30.0877 174.052 30.555C174.039 30.965 174.116 31.3728 174.277 31.7502C174.437 32.1275 174.678 32.4653 174.983 32.74C175.707 33.342 176.632 33.6456 177.572 33.589H177.571Z" fill="#134574"/>
<path d="M67.7911 58.5169C67.2164 58.5169 66.9291 58.2055 66.9291 57.5829V47.5689C66.9291 46.8822 67.2164 46.5389 67.7911 46.5389C68.0265 46.5231 68.2599 46.5911 68.4501 46.7308C68.6136 46.8709 68.7493 47.0405 68.8501 47.2308L72.9231 54.4898L76.9961 47.2308C77.0965 47.0403 77.2323 46.8707 77.3961 46.7308C77.5781 46.5932 77.8033 46.5251 78.0311 46.5389C78.6057 46.5389 78.8931 46.8822 78.8931 47.5689V57.5829C78.8931 58.2055 78.6057 58.5169 78.0311 58.5169C77.4564 58.5169 77.1687 58.2055 77.1681 57.5829V49.8688L73.6221 56.1219C73.5476 56.2433 73.4544 56.3523 73.3461 56.4449C73.2269 56.538 73.0781 56.5849 72.9271 56.5768C72.7684 56.5871 72.6112 56.5403 72.4841 56.4449C72.376 56.3523 72.2832 56.2433 72.2091 56.1219L68.6631 49.8688V57.5829C68.6571 58.2055 68.3664 58.5169 67.7911 58.5169Z" fill="#4CB753"/>
<path d="M87.9861 58.5648C87.1875 58.6067 86.3888 58.4848 85.639 58.2068C84.8892 57.9287 84.2042 57.5003 83.6261 56.9478C83.0764 56.3602 82.6513 55.6675 82.3763 54.9114C82.1013 54.1552 81.9822 53.3512 82.0261 52.5478C82.0037 51.4467 82.2505 50.3568 82.7451 49.3728C83.1908 48.4905 83.8759 47.7517 84.7221 47.2408C85.604 46.726 86.6111 46.4647 87.6321 46.4858C88.3249 46.4492 89.0173 46.5665 89.6593 46.8295C90.3013 47.0925 90.8771 47.4946 91.3451 48.0068C92.2956 49.1857 92.7736 50.676 92.6861 52.1878C92.6861 52.6831 92.4068 52.9308 91.8481 52.9308H83.9121C83.8948 54.0505 84.3062 55.1345 85.0621 55.9608C85.4546 56.3215 85.9156 56.5996 86.4178 56.7786C86.9199 56.9576 87.4529 57.0339 87.9851 57.0028C88.5263 57.0023 89.0653 56.9351 89.5901 56.8028C90.1568 56.6564 90.6925 56.4088 91.1711 56.0718C91.2947 55.9617 91.4474 55.8896 91.6109 55.8641C91.7744 55.8385 91.9418 55.8606 92.0931 55.9278C92.2109 55.9923 92.3089 56.0878 92.3764 56.2039C92.4439 56.3201 92.4784 56.4525 92.4761 56.5868C92.4706 56.7485 92.4223 56.9058 92.336 57.0427C92.2497 57.1796 92.1286 57.2911 91.9851 57.3658C91.4153 57.7693 90.7789 58.0692 90.1051 58.2518C89.4167 58.454 88.7035 58.5593 87.9861 58.5648ZM87.6741 47.9278C87.1906 47.9033 86.7075 47.9826 86.2571 48.1602C85.8068 48.3379 85.3997 48.6098 85.0631 48.9578C84.3965 49.7094 84.0002 50.6622 83.9371 51.6648H91.0041C91.0205 50.6681 90.6951 49.6958 90.0821 48.9098C89.7796 48.5769 89.4064 48.316 88.9899 48.146C88.5734 47.9761 88.1241 47.9015 87.6751 47.9278H87.6741Z" fill="#4CB753"/>
<path d="M95.2701 61.632C94.7107 61.632 94.431 61.3283 94.431 60.721V57.75C94.4125 57.6199 94.4245 57.4872 94.4661 57.3625C94.5077 57.2378 94.5777 57.1245 94.6706 57.0316C94.7636 56.9387 94.8769 56.8686 95.0016 56.827C95.1262 56.7854 95.2589 56.7734 95.389 56.792H95.677C96.2343 55.9274 96.6319 54.9699 96.851 53.965C97.1108 52.704 97.2311 51.4183 97.21 50.131V47.807C97.189 47.6576 97.203 47.5054 97.2509 47.3624C97.2988 47.2194 97.3792 47.0894 97.4858 46.9828C97.5925 46.8762 97.7224 46.7957 97.8655 46.7478C98.0085 46.7 98.1607 46.686 98.31 46.707H104.347C104.496 46.686 104.649 46.7 104.792 46.7478C104.935 46.7957 105.065 46.8762 105.171 46.9828C105.278 47.0894 105.358 47.2194 105.406 47.3624C105.454 47.5054 105.468 47.6576 105.447 47.807V56.791H106.333C106.463 56.7723 106.596 56.7841 106.721 56.8256C106.846 56.8671 106.959 56.9372 107.052 57.0301C107.145 57.1231 107.215 57.2364 107.257 57.3612C107.299 57.486 107.311 57.6188 107.292 57.749V60.72C107.292 61.3266 107.012 61.6303 106.453 61.631C105.894 61.6317 105.614 61.328 105.615 60.72V58.349H96.0801V60.72C96.0827 61.328 95.8127 61.632 95.2701 61.632ZM97.522 56.793H103.607V48.24H98.94V50.468C98.9432 51.6354 98.8225 52.7999 98.5801 53.942C98.3829 54.9431 98.0252 55.9059 97.521 56.793H97.522Z" fill="#4CB753"/>
<path d="M110.77 58.517C110.179 58.517 109.883 58.1657 109.884 57.463V47.497C109.884 46.8583 110.179 46.539 110.77 46.539C111.361 46.539 111.656 46.8583 111.656 47.497V55.714L118.028 47.161C118.151 46.9904 118.3 46.8408 118.471 46.718C118.674 46.5882 118.913 46.5252 119.153 46.538C119.744 46.538 120.039 46.8813 120.039 47.568V57.558C120.039 58.1967 119.744 58.516 119.153 58.516C118.562 58.516 118.267 58.1967 118.267 57.558V49.345L111.867 57.897C111.75 58.0618 111.609 58.2072 111.447 58.328C111.248 58.4634 111.01 58.5297 110.77 58.517Z" fill="#4CB753"/>
<path d="M124.856 58.5169C124.721 58.5345 124.583 58.5204 124.454 58.4757C124.326 58.4309 124.209 58.3569 124.114 58.2593C124.018 58.1617 123.947 58.0433 123.906 57.9134C123.864 57.7835 123.853 57.6457 123.874 57.5109V47.5929C123.853 47.4582 123.864 47.3204 123.906 47.1905C123.947 47.0606 124.018 46.9422 124.114 46.8446C124.209 46.747 124.326 46.6729 124.454 46.6282C124.583 46.5835 124.721 46.5693 124.856 46.5869C125.495 46.5869 125.814 46.9223 125.814 47.5929V51.5689H127.994L131.54 47.0169C131.617 46.9068 131.714 46.813 131.827 46.7411C131.941 46.6692 132.067 46.6205 132.199 46.5979C132.419 46.5715 132.641 46.6271 132.822 46.7539C132.912 46.8165 132.99 46.8964 133.049 46.9888C133.109 47.0813 133.15 47.1847 133.169 47.2929C133.189 47.4231 133.18 47.5561 133.142 47.6824C133.105 47.8087 133.04 47.9253 132.953 48.0239L129.887 51.9529C130.321 52.1096 130.708 52.3734 131.013 52.7199C131.44 53.2167 131.817 53.7543 132.139 54.3249L133.864 57.1759C133.933 57.2831 133.977 57.4039 133.994 57.5299C134.012 57.656 134.001 57.7843 133.964 57.9059C133.885 58.1206 133.727 58.2965 133.521 58.3969C133.411 58.4574 133.289 58.495 133.164 58.5072C133.039 58.5194 132.913 58.5061 132.793 58.468C132.673 58.43 132.562 58.368 132.467 58.2858C132.372 58.2036 132.294 58.103 132.239 57.9899L130.346 54.8279C130.062 54.3043 129.67 53.8472 129.196 53.4869C128.722 53.2207 128.182 53.0961 127.639 53.1279H125.818V57.5119C125.815 58.1826 125.495 58.5176 124.856 58.5169Z" fill="#4CB753"/>
<path d="M140.163 58.5649C139.422 58.5777 138.688 58.4178 138.019 58.0979C137.414 57.8108 136.897 57.3684 136.519 56.8159C136.153 56.2799 135.961 55.6446 135.968 54.9959C135.929 54.2664 136.164 53.5487 136.627 52.9839C137.224 52.4081 137.986 52.0351 138.807 51.9179C140.178 51.6723 141.57 51.5641 142.963 51.5949H143.73V50.8529C143.799 50.0872 143.582 49.3231 143.119 48.7089C142.857 48.4694 142.549 48.2871 142.213 48.1736C141.876 48.0601 141.52 48.018 141.167 48.0499C140.597 48.0513 140.03 48.1239 139.478 48.2659C138.866 48.4271 138.275 48.66 137.717 48.9599C137.618 49.0273 137.505 49.0701 137.386 49.0847C137.267 49.0993 137.146 49.0853 137.034 49.0439C136.944 49.0019 136.864 48.942 136.798 48.8679C136.732 48.7938 136.682 48.707 136.651 48.6129C136.579 48.4115 136.579 48.1913 136.651 47.9899C136.69 47.8798 136.752 47.7791 136.832 47.6944C136.912 47.6098 137.01 47.5432 137.118 47.4989C137.775 47.159 138.47 46.9014 139.19 46.7319C139.838 46.5782 140.501 46.498 141.167 46.4929C141.769 46.4435 142.375 46.5154 142.95 46.7044C143.524 46.8933 144.054 47.1954 144.509 47.5929C145.311 48.5457 145.703 49.7777 145.599 51.0189V57.5109C145.599 58.1816 145.303 58.5169 144.712 58.5169C144.089 58.5169 143.778 58.1816 143.778 57.5109V56.3369C143.487 57.0091 142.999 57.5772 142.378 57.9659C141.713 58.3744 140.944 58.5824 140.163 58.5649ZM140.475 57.1039C140.915 57.1182 141.353 57.0367 141.758 56.8651C142.164 56.6934 142.527 56.4358 142.823 56.1099C143.441 55.4165 143.767 54.5111 143.733 53.5829V52.8639H142.99C141.969 52.8467 140.947 52.9069 139.935 53.0439C139.365 53.0905 138.823 53.3076 138.378 53.6669C138.226 53.8281 138.108 54.0184 138.032 54.2264C137.956 54.4344 137.923 54.6557 137.935 54.8769C137.925 55.1779 137.981 55.4774 138.099 55.7545C138.217 56.0317 138.394 56.2799 138.617 56.4819C139.134 56.919 139.799 57.1415 140.475 57.1039Z" fill="#4CB753"/>
<path d="M158.323 58.5169C157.684 58.5169 157.364 58.1816 157.364 57.5109V48.264H152.664V49.7489C152.685 51.1536 152.576 52.5572 152.34 53.9419C152.181 54.9302 151.822 55.8758 151.286 56.721C150.795 57.4431 150.121 58.0219 149.333 58.398C149.105 58.5072 148.843 58.5244 148.602 58.4459C148.397 58.3751 148.226 58.2299 148.123 58.0389C148.019 57.8487 147.989 57.6269 148.039 57.4159C148.074 57.2916 148.134 57.176 148.217 57.0769C148.299 56.9778 148.402 56.8974 148.518 56.841C149.106 56.5089 149.594 56.0255 149.932 55.441C150.306 54.7367 150.545 53.9689 150.638 53.177C150.787 52.0165 150.854 50.8469 150.838 49.677V47.8079C150.817 47.6586 150.831 47.5064 150.879 47.3634C150.927 47.2204 151.007 47.0904 151.114 46.9837C151.22 46.8771 151.35 46.7967 151.493 46.7488C151.636 46.701 151.789 46.687 151.938 46.708H158.191C158.34 46.687 158.493 46.701 158.636 46.7488C158.779 46.7967 158.909 46.8771 159.015 46.9837C159.122 47.0904 159.202 47.2204 159.25 47.3634C159.298 47.5064 159.312 47.6586 159.291 47.8079V57.5079C159.312 57.6416 159.302 57.7784 159.261 57.9074C159.22 58.0365 159.151 58.1545 159.057 58.2521C158.963 58.3498 158.848 58.4245 158.721 58.4704C158.594 58.5163 158.457 58.5323 158.323 58.5169Z" fill="#4CB753"/>
<defs>
<linearGradient id="paint0_linear_1_294" x1="-54.0836" y1="50.4435" x2="29.5273" y2="50.4435" gradientUnits="userSpaceOnUse">
<stop stop-color="#0FB373"/>
<stop offset="0.442" stop-color="#3AB65A"/>
<stop offset="0.79" stop-color="#54B94B"/>
<stop offset="0.994" stop-color="#5FBA46"/>
</linearGradient>
<linearGradient id="paint1_linear_1_294" x1="2.87971" y1="31.9808" x2="47.2841" y2="34.6294" gradientUnits="userSpaceOnUse">
<stop stop-color="#0FB373"/>
<stop offset="0.21" stop-color="#109573"/>
<stop offset="0.561" stop-color="#116A73"/>
<stop offset="0.834" stop-color="#124F73"/>
<stop offset="0.994" stop-color="#134574"/>
</linearGradient>
</defs>
</svg>
