<svg width="20" height="18" viewBox="0 0 20 18" fill="none" xmlns="http://www.w3.org/2000/svg">
<g clip-path="url(#clip0_37_2)">
<g opacity="0.5">
<path d="M5.456 18C4.72112 18.0077 3.99282 17.861 3.31824 17.5693C2.64366 17.2777 2.03784 16.8476 1.54 16.307C0.522241 15.1607 -0.0274429 13.6737 -2.18977e-07 12.141V5.85901C-0.0274429 4.32633 0.522241 2.83933 1.54 1.69301C2.03784 1.1524 2.64366 0.722352 3.31824 0.430712C3.99282 0.139072 4.72112 -0.00766064 5.456 1.13916e-05H14.525C15.2732 0.011015 16.0115 0.173054 16.6956 0.476406C17.3797 0.779757 17.9954 1.21817 18.5059 1.76534C19.0163 2.31251 19.411 2.95716 19.6662 3.66061C19.9214 4.36406 20.0319 5.11182 19.991 5.85901V12.096C20.0343 12.8484 19.926 13.6017 19.6725 14.3114C19.4189 15.021 19.0253 15.6725 18.515 16.227C18.0029 16.7778 17.3844 17.2189 16.6968 17.5237C16.0093 17.8284 15.267 17.9905 14.515 18H5.456ZM1.517 5.85901V12.141C1.47331 12.6879 1.54226 13.2379 1.71957 13.7571C1.89688 14.2763 2.17879 14.7536 2.54787 15.1595C2.91695 15.5654 3.36537 15.8913 3.86539 16.1171C4.36542 16.3428 4.90644 16.4636 5.455 16.472H14.507C15.0512 16.4643 15.5882 16.3463 16.0854 16.1251C16.5827 15.9039 17.0299 15.5841 17.4 15.185C17.7756 14.7767 18.0642 14.2964 18.2483 13.7731C18.4324 13.2498 18.5082 12.6945 18.471 12.141V5.81401C18.5026 5.26763 18.424 4.72047 18.2398 4.20509C18.0557 3.6897 17.7697 3.21663 17.399 2.81401C17.0288 2.41483 16.5814 2.09495 16.084 1.87373C15.5865 1.65251 15.0494 1.53455 14.505 1.52701H5.456C4.90726 1.53524 4.36605 1.65597 3.86583 1.88172C3.36561 2.10747 2.91703 2.43345 2.54782 2.83949C2.17862 3.24553 1.89664 3.723 1.71934 4.24237C1.54203 4.76174 1.47317 5.31196 1.517 5.85901V5.85901ZM8.382 10.138L8.221 10.02L4.086 6.72001C3.92846 6.59304 3.82731 6.4091 3.80447 6.20806C3.78164 6.00702 3.83895 5.80508 3.964 5.64601C4.07638 5.50276 4.23674 5.40494 4.41553 5.37058C4.59433 5.33622 4.77953 5.36762 4.937 5.45901L5.031 5.52201L9.16 8.82201C9.38235 8.99736 9.65336 9.09989 9.9361 9.11564C10.2188 9.13139 10.4995 9.05958 10.74 8.91001L10.858 8.82801L14.958 5.52801C15.0356 5.46527 15.1248 5.41854 15.2206 5.39053C15.3163 5.36253 15.4167 5.35381 15.5159 5.36488C15.615 5.37595 15.711 5.40659 15.7982 5.45502C15.8854 5.50345 15.9622 5.5687 16.024 5.64701C16.1384 5.79046 16.1978 5.97009 16.1914 6.15348C16.185 6.33687 16.1132 6.51192 15.989 6.64701L15.906 6.72301L11.8 10.023C11.3167 10.4027 10.7249 10.6184 10.1107 10.6389C9.49639 10.6594 8.89157 10.4836 8.384 10.137L8.382 10.138Z" fill="#222222"/>
</g>
</g>
<defs>
<clipPath id="clip0_37_2">
<rect width="20" height="18" fill="white"/>
</clipPath>
</defs>
</svg>
