<svg width="20" height="18" viewBox="0 0 20 18" fill="none" xmlns="http://www.w3.org/2000/svg">
<g clip-path="url(#clip0_13_24)">
<path d="M5.456 18C4.72112 18.0077 3.99282 17.8609 3.31824 17.5693C2.64366 17.2777 2.03785 16.8476 1.54 16.307C0.522245 15.1607 -0.0274391 13.6737 3.59572e-06 12.141V5.859C-0.0274391 4.32631 0.522245 2.83931 1.54 1.693C2.03785 1.15238 2.64366 0.722336 3.31824 0.430697C3.99282 0.139057 4.72112 -0.0076759 5.456 -3.86714e-06H14.525C15.2732 0.0109998 16.0115 0.173039 16.6956 0.47639C17.3797 0.779742 17.9954 1.21816 18.5059 1.76532C19.0163 2.31249 19.411 2.95714 19.6662 3.6606C19.9214 4.36405 20.0319 5.1118 19.991 5.859V12.096C20.0343 12.8483 19.926 13.6017 19.6725 14.3114C19.4189 15.021 19.0253 15.6725 18.515 16.227C18.0029 16.7778 17.3844 17.2189 16.6968 17.5237C16.0093 17.8284 15.267 17.9905 14.515 18H5.456ZM1.517 5.859V12.141C1.47332 12.6879 1.54226 13.2379 1.71957 13.7571C1.89688 14.2763 2.17879 14.7536 2.54787 15.1595C2.91696 15.5654 3.36537 15.8913 3.8654 16.1171C4.36543 16.3428 4.90644 16.4636 5.455 16.472H14.507C15.0512 16.4643 15.5882 16.3463 16.0854 16.1251C16.5827 15.9039 17.0299 15.5841 17.4 15.185C17.7756 14.7767 18.0642 14.2963 18.2483 13.7731C18.4324 13.2498 18.5082 12.6945 18.471 12.141V5.814C18.5026 5.26761 18.424 4.72045 18.2398 4.20507C18.0557 3.68969 17.7697 3.21662 17.399 2.814C17.0288 2.41482 16.5814 2.09493 16.084 1.87371C15.5865 1.65249 15.0494 1.53454 14.505 1.527H5.456C4.90727 1.53523 4.36605 1.65595 3.86583 1.88171C3.36561 2.10746 2.91703 2.43343 2.54782 2.83947C2.17862 3.24552 1.89664 3.72299 1.71934 4.24236C1.54203 4.76173 1.47317 5.31195 1.517 5.859V5.859ZM8.382 10.138L8.221 10.02L4.086 6.72C3.92847 6.59303 3.82732 6.40909 3.80448 6.20805C3.78164 6.00701 3.83896 5.80506 3.964 5.646C4.07638 5.50274 4.23674 5.40493 4.41554 5.37056C4.59434 5.3362 4.77953 5.36761 4.937 5.459L5.031 5.522L9.16 8.822C9.38236 8.99734 9.65336 9.09988 9.9361 9.11563C10.2188 9.13137 10.4996 9.05957 10.74 8.91L10.858 8.828L14.958 5.528C15.0356 5.46525 15.1248 5.41852 15.2206 5.39052C15.3163 5.36252 15.4167 5.3538 15.5159 5.36487C15.615 5.37594 15.711 5.40657 15.7982 5.455C15.8854 5.50343 15.9622 5.56869 16.024 5.647C16.1384 5.79044 16.1978 5.97008 16.1914 6.15347C16.185 6.33685 16.1132 6.5119 15.989 6.647L15.906 6.723L11.8 10.023C11.3167 10.4026 10.7249 10.6184 10.1107 10.6389C9.49639 10.6594 8.89157 10.4836 8.384 10.137L8.382 10.138Z" fill="white"/>
</g>
<defs>
<clipPath id="clip0_13_24">
<rect width="20" height="18" fill="white"/>
</clipPath>
</defs>
</svg>
