<svg width="51" height="15" fill="none" xmlns="http://www.w3.org/2000/svg"><g opacity="1" fill="#fff"><path d="M28.405 2.157l-3.178 6.848h-.322V.681h-4.54v14h3.765c1.021 0 1.93-.587 2.364-1.495l3.198-6.83h.321v8.325h4.541v-14h-3.822c-.983 0-1.91.586-2.327 1.476zM11.53 2.516l-1.873 6.49h-.322l-1.892-6.49A2.554 2.554 0 0 0 4.983.681H.5v14h4.54V6.357h.322l2.611 8.324H11l2.61-8.324h.322v8.324h4.541v-14h-4.484c-1.135 0-2.157.738-2.46 1.835zM36.446 6.924v7.757h4.54v-4.54h4.882a4.846 4.846 0 0 0 4.578-3.217h-14zM45.735.68H35.632c.625 3.33 3.538 5.677 7.038 5.677h7.852a5.42 5.42 0 0 0 .094-.984c0-2.706-2.175-4.692-4.88-4.692z"/></g></svg>