<svg width="21" height="20" viewBox="0 0 21 20" fill="none" xmlns="http://www.w3.org/2000/svg">
<g clip-path="url(#clip0_14_4)">
<path d="M13.075 19.43C10.3819 18.0888 7.94768 16.2812 5.885 14.091C3.69336 12.0322 1.89709 9.58962 0.585002 6.884L0.485002 6.646C-0.195998 5.027 -0.156998 3.689 0.589002 2.669C1.242 1.581 3.041 0 4.376 0H4.451H4.48C5.01202 0.0645739 5.50334 0.317505 5.865 0.713L5.992 0.843C6.95436 1.86812 7.77683 3.01609 8.438 4.257L8.463 4.345C8.5234 4.67826 8.51378 5.02045 8.43475 5.34979C8.35573 5.67913 8.20904 5.98842 8.004 6.258L7.895 6.451C7.695 6.82 7.656 6.979 7.72 7.165C8.1635 8.31054 8.83898 9.35204 9.70405 10.2242C10.5691 11.0963 11.6051 11.7802 12.747 12.233C12.8069 12.2564 12.8707 12.2686 12.935 12.269C13.181 12.236 13.4148 12.1418 13.615 11.995L13.863 11.854C14.2379 11.6105 14.6714 11.4724 15.118 11.454C15.2724 11.4549 15.4262 11.4719 15.577 11.505C16.7617 12.0963 17.8533 12.858 18.817 13.766L19.091 14.02L19.191 14.12C19.593 14.4943 19.8448 15.0024 19.899 15.549C19.945 16.866 18.351 18.788 17.299 19.392C16.7317 19.8009 16.0483 20.0172 15.349 20.009C14.5578 19.9844 13.7816 19.7867 13.075 19.43V19.43ZM4.369 1.464H4.283C3.27038 1.86691 2.40531 2.57006 1.804 3.479L1.721 3.6C1.529 4.03317 1.44681 4.50702 1.48169 4.97955C1.51658 5.45208 1.66747 5.90872 1.921 6.309L2.021 6.553C3.3058 9.03959 5.00784 11.2872 7.053 13.198C8.95519 15.2014 11.1907 16.8593 13.66 18.098L13.872 18.192C14.3253 18.4027 14.8164 18.5197 15.316 18.536C15.7439 18.5423 16.1624 18.41 16.509 18.159L16.559 18.127C16.9494 17.821 17.3088 17.4773 17.632 17.101C18.0444 16.7042 18.3283 16.1929 18.447 15.633C18.4053 15.4455 18.3048 15.2762 18.16 15.15L18.079 15.07C17.2105 14.2783 16.2735 13.5651 15.279 12.939C15.2382 12.9305 15.1967 12.9261 15.155 12.926C14.8812 12.9639 14.6214 13.0705 14.4 13.236L14.155 13.375C13.7938 13.6006 13.3805 13.7294 12.955 13.749C12.7042 13.7449 12.456 13.6965 12.222 13.606C10.8902 13.0776 9.68212 12.2791 8.67395 11.261C7.66577 10.2428 6.87929 9.02699 6.364 7.69C6.24286 7.33881 6.21096 6.963 6.27119 6.59641C6.33141 6.22983 6.48187 5.88398 6.709 5.59L6.821 5.39C7.031 5.009 7.08 4.841 7.039 4.642C6.44316 3.68731 5.76848 2.78416 5.022 1.942L4.848 1.76L4.756 1.675C4.66008 1.58595 4.54668 1.51783 4.423 1.475L4.369 1.464ZM15.124 7.984C14.9913 7.28376 14.6517 6.6394 14.149 6.1342C13.6462 5.62899 13.0036 5.28616 12.304 5.15C12.1287 5.11738 11.9714 5.02192 11.8615 4.88153C11.7517 4.74115 11.6968 4.56549 11.7072 4.38752C11.7176 4.20956 11.7927 4.04152 11.9182 3.91493C12.0437 3.78835 12.2111 3.71192 12.389 3.7H12.489L12.589 3.713C13.5725 3.90546 14.4757 4.38813 15.1823 5.09878C15.8888 5.80942 16.3662 6.71545 16.553 7.7C16.5898 7.89007 16.5501 8.08699 16.4424 8.24788C16.3347 8.40877 16.1678 8.52059 15.978 8.559C15.8839 8.57741 15.787 8.57701 15.6931 8.55783C15.5991 8.53866 15.5099 8.50108 15.4305 8.44726C15.3511 8.39344 15.2832 8.32444 15.2306 8.24425C15.178 8.16406 15.1417 8.07425 15.124 7.98V7.984ZM18.553 7.917C18.3747 6.33049 17.6661 4.85061 16.542 3.717C15.4187 2.59041 13.9458 1.87917 12.365 1.7C12.1892 1.6802 12.0265 1.5974 11.9071 1.46693C11.7876 1.33645 11.7194 1.16712 11.7151 0.990264C11.7109 0.813406 11.7708 0.640987 11.8838 0.504898C11.9969 0.368809 12.1554 0.27826 12.33 0.25L12.43 0.241H12.53C14.4392 0.457043 16.2181 1.31568 17.575 2.676C18.9338 4.04613 19.7898 5.83524 20.004 7.753C20.026 7.94538 19.9707 8.13861 19.8503 8.29028C19.73 8.44195 19.5543 8.53967 19.362 8.562C19.335 8.562 19.307 8.562 19.28 8.562C19.1007 8.56292 18.9273 8.49761 18.7931 8.37858C18.6589 8.25955 18.5734 8.09518 18.553 7.917V7.917Z" fill="#10AE73"/>
</g>
<defs>
<clipPath id="clip0_14_4">
<rect width="20.004" height="20" fill="white"/>
</clipPath>
</defs>
</svg>
