<svg width="48" height="48" viewBox="0 0 48 48" fill="none" xmlns="http://www.w3.org/2000/svg">
<g clip-path="url(#clip0_7_2)">
<path d="M18.901 45.9L17.151 44.15C16.4712 43.4761 15.5523 43.0986 14.595 43.1H12.133C10.2172 43.0979 8.38046 42.3359 7.02578 40.9812C5.6711 39.6265 4.90912 37.7898 4.907 35.874C4.907 35.3966 5.09664 34.9388 5.43421 34.6012C5.77177 34.2636 6.22961 34.074 6.707 34.074C7.18439 34.074 7.64222 34.2636 7.97979 34.6012C8.31736 34.9388 8.507 35.3966 8.507 35.874C8.50779 36.8353 8.8901 37.7571 9.56997 38.4367C10.2498 39.1164 11.1717 39.4985 12.133 39.499H14.601C16.5096 39.4964 18.3411 40.2518 19.693 41.599L21.424 43.332C21.7613 43.6719 22.1629 43.9414 22.6053 44.1247C23.0477 44.3081 23.5221 44.4017 24.001 44.4C24.481 44.4121 24.9582 44.3229 25.4015 44.1384C25.8448 43.9539 26.2443 43.6781 26.574 43.329C26.7409 43.1615 26.9392 43.0285 27.1575 42.9376C27.3758 42.8468 27.6099 42.7998 27.8463 42.7994C28.0828 42.7989 28.317 42.8451 28.5356 42.9352C28.7543 43.0253 28.953 43.1576 29.1205 43.3245C29.288 43.4914 29.421 43.6897 29.5119 43.908C29.6027 44.1263 29.6497 44.3604 29.6501 44.5968C29.6506 44.8333 29.6044 45.0675 29.5143 45.2861C29.4242 45.5048 29.2919 45.7035 29.125 45.871C27.7719 47.2286 25.9357 47.994 24.019 47.9994C22.1023 48.0049 20.2617 47.2499 18.901 45.9V45.9ZM34.066 41.3C34.066 40.8226 34.2556 40.3648 34.5932 40.0272C34.9308 39.6896 35.3886 39.5 35.866 39.5C36.8278 39.4989 37.7499 39.1163 38.4299 38.4362C39.1099 37.756 39.4922 36.8338 39.493 35.872V33.4C39.4901 32.4543 39.6742 31.5173 40.0346 30.6429C40.395 29.7686 40.9246 28.974 41.593 28.305L43.321 26.574C43.6613 26.2372 43.9316 25.8364 44.1162 25.3946C44.3009 24.9528 44.3961 24.4788 44.3966 24C44.3971 23.5212 44.3027 23.0471 44.1189 22.6049C43.9352 22.1628 43.6657 21.7614 43.326 21.424L41.601 19.694C40.9317 19.0242 40.4011 18.229 40.0395 17.3539C39.678 16.4787 39.4926 15.5409 39.494 14.594V12.124C39.4927 11.1626 39.1099 10.241 38.4297 9.56149C37.7495 8.88204 36.8274 8.50026 35.866 8.5C35.3886 8.5 34.9308 8.31036 34.5932 7.97279C34.2556 7.63523 34.066 7.17739 34.066 6.7C34.066 6.22261 34.2556 5.76477 34.5932 5.42721C34.9308 5.08964 35.3886 4.9 35.866 4.9C37.7824 4.90212 39.6197 5.66449 40.9746 7.01979C42.3296 8.37509 43.0914 10.2126 43.093 12.129V14.597C43.0924 15.5556 43.4722 16.4752 44.149 17.154L45.872 18.877C47.2312 20.229 47.9978 22.0654 48.0032 23.9825C48.0087 25.8996 47.2525 27.7403 45.901 29.1L44.149 30.852C43.4784 31.5312 43.0995 32.4455 43.093 33.4V35.865C43.0925 37.7823 42.3311 39.621 40.9762 40.9775C39.6212 42.334 37.7833 43.0973 35.866 43.1C35.3886 43.1 34.9308 42.9104 34.5932 42.5728C34.2556 42.2352 34.066 41.7774 34.066 41.3ZM2.128 29.127C0.771014 27.7729 0.00618496 25.9361 0.00112391 24.0191C-0.00393714 22.1021 0.751183 20.2612 2.101 18.9L3.853 17.148C4.18822 16.8137 4.45422 16.4166 4.63577 15.9794C4.81732 15.5422 4.91084 15.0734 4.911 14.6V12.127C4.91259 10.2111 5.67424 8.37412 7.02878 7.0192C8.38333 5.66428 10.2201 4.90212 12.136 4.9H14.608C15.0805 4.90022 15.5485 4.80703 15.9849 4.62581C16.4213 4.44458 16.8176 4.17889 17.151 3.844L18.879 2.118C20.1863 0.809716 21.9456 0.052819 23.7945 0.00332881C25.6433 -0.0461614 27.4406 0.615527 28.816 1.852C28.9174 1.92487 29.0137 2.00473 29.104 2.091C29.4231 2.42844 29.6018 2.87461 29.604 3.339C29.6035 3.68856 29.5013 4.03043 29.3097 4.32284C29.1182 4.61525 28.8456 4.84557 28.5254 4.98566C28.2051 5.12575 27.851 5.16955 27.5062 5.11172C27.1615 5.05389 26.841 4.89693 26.584 4.66C26.56 4.636 26.56 4.636 26.535 4.614C25.8442 3.95547 24.924 3.59194 23.9697 3.60053C23.0153 3.60911 22.1018 3.98914 21.423 4.66L19.696 6.388C19.0303 7.05981 18.2376 7.59251 17.3641 7.95509C16.4906 8.31767 15.5538 8.5029 14.608 8.5H12.136C11.1752 8.50317 10.2547 8.88638 9.57553 9.56594C8.89634 10.2455 8.51364 11.1662 8.511 12.127V14.6C8.5143 15.5458 8.32945 16.4828 7.9672 17.3565C7.60496 18.2301 7.07256 19.023 6.401 19.689L4.671 21.42C3.99077 22.1062 3.60913 23.0333 3.60913 23.9995C3.60913 24.9657 3.99077 25.8928 4.671 26.579C5.0059 26.9185 5.19367 27.3761 5.19367 27.853C5.19367 28.3299 5.0059 28.7875 4.671 29.127C4.33067 29.4598 3.87495 29.6482 3.399 29.653C3.16291 29.6536 2.92904 29.6074 2.71089 29.5171C2.49274 29.4268 2.29463 29.2942 2.128 29.127V29.127Z" fill="#119273"/>
<path d="M16.558 28.893C16.2202 29.2306 16.0304 29.6886 16.0304 30.1661C16.0303 30.6437 16.2199 31.1017 16.5575 31.4395C16.8951 31.7773 17.3531 31.9671 17.8306 31.9671C18.3082 31.9672 18.7662 31.7776 19.104 31.44L31.439 19.1C31.7722 18.7617 31.9583 18.3054 31.9566 17.8306C31.955 17.3557 31.7658 16.9008 31.4302 16.5648C31.0946 16.2288 30.6399 16.0391 30.165 16.0369C29.6902 16.0346 29.2337 16.2202 28.895 16.553L16.558 28.893Z" fill="#134574"/>
<path d="M19.893 17.865C19.8934 17.453 19.7716 17.0501 19.543 16.7073C19.3144 16.3645 18.9893 16.0972 18.6087 15.9392C18.2282 15.7812 17.8094 15.7396 17.4052 15.8197C17.0011 15.8998 16.6297 16.0979 16.3382 16.389C16.0466 16.6802 15.8479 17.0512 15.7673 17.4553C15.6866 17.8593 15.7276 18.2782 15.8851 18.659C16.0425 19.0397 16.3094 19.3652 16.6518 19.5943C16.9943 19.8234 17.397 19.9458 17.809 19.946C18.3611 19.9457 18.8906 19.7265 19.2813 19.3364C19.6719 18.9463 19.8919 18.4171 19.893 17.865Z" fill="#134574"/>
<path d="M32.251 30.173C32.2508 29.7611 32.1285 29.3585 31.8995 29.0161C31.6706 28.6737 31.3452 28.4069 30.9647 28.2494C30.5841 28.0918 30.1654 28.0507 29.7614 28.1311C29.3574 28.2115 28.9863 28.4098 28.6951 28.7011C28.4038 28.9923 28.2055 29.3634 28.1251 29.7674C28.0447 30.1714 28.0858 30.5901 28.2434 30.9707C28.4009 31.3512 28.6677 31.6766 29.0101 31.9055C29.3525 32.1345 29.7551 32.2568 30.167 32.257C30.7196 32.2567 31.2495 32.0371 31.6403 31.6463C32.0311 31.2555 32.2507 30.7256 32.251 30.173Z" fill="#134574"/>
</g>
<defs>
<clipPath id="clip0_7_2">
<rect width="48" height="48.001" fill="white"/>
</clipPath>
</defs>
</svg>
