<svg width="21" height="21" viewBox="0 0 21 21" fill="none" xmlns="http://www.w3.org/2000/svg">
<path d="M15.3017 2.25219C15.2352 2.24053 15.1679 2.23323 15.1005 2.23034C14.9671 2.22043 14.8333 2.21913 14.6998 2.22645C14.422 2.23896 14.107 2.27461 13.7961 2.31033C13.4852 2.34605 13.1775 2.38158 12.9422 2.40549C12.8327 2.41229 12.7229 2.41326 12.6132 2.40839C12.5214 2.35835 12.4325 2.30305 12.347 2.24278C12.1462 2.10716 11.8984 1.91542 11.6458 1.73379C11.3932 1.55216 11.1342 1.35951 10.898 1.20921C10.7868 1.13842 10.6717 1.07401 10.5532 1.01631C10.4123 0.926979 10.2475 0.882792 10.0808 0.889664C9.91311 0.889843 9.74921 0.939556 9.60967 1.03256C9.49284 1.0995 9.37982 1.17291 9.27115 1.25243C9.04397 1.41621 8.79167 1.61571 8.54789 1.81438C8.3041 2.01306 8.06339 2.21567 7.87586 2.35901C7.7909 2.42349 7.70233 2.48306 7.61058 2.53743C7.50355 2.54982 7.39585 2.55553 7.28812 2.55452C7.0486 2.54414 6.74088 2.52169 6.42775 2.504C6.11461 2.48631 5.79831 2.46881 5.51781 2.4723C5.38389 2.47132 5.25005 2.47901 5.11713 2.49534C4.95127 2.50674 4.79149 2.5623 4.65433 2.65624C4.51717 2.75019 4.40764 2.87911 4.33708 3.02964C4.27117 3.14815 4.21363 3.27112 4.16489 3.39765C4.05882 3.6581 3.95733 3.96327 3.85817 4.25974C3.759 4.55621 3.66312 4.85977 3.58234 5.08765C3.54421 5.18876 3.50042 5.28764 3.45116 5.38382C3.36893 5.44909 3.28344 5.51015 3.19503 5.56676C2.98767 5.69133 2.71271 5.84023 2.4396 5.99377C2.1665 6.14731 1.88668 6.31044 1.65261 6.46512C1.54128 6.53691 1.43446 6.61547 1.33275 6.70035C1.19604 6.79799 1.08867 6.9312 1.02229 7.08552C0.955906 7.23985 0.933041 7.40941 0.956175 7.5758C0.963506 7.70899 0.980226 7.8415 1.00621 7.97233C1.05757 8.24807 1.13523 8.56089 1.21154 8.86713C1.28786 9.17337 1.36669 9.47408 1.42113 9.71129C1.44284 9.81605 1.4587 9.92193 1.46863 10.0284C1.43321 10.13 1.39265 10.2297 1.34711 10.3272C1.23769 10.5422 1.09062 10.8165 0.943232 11.0959C0.79584 11.3753 0.645998 11.6562 0.52949 11.9169C0.473133 12.0388 0.424024 12.164 0.38242 12.2917C0.320319 12.4476 0.302144 12.6175 0.329873 12.7831C0.357602 12.9486 0.430172 13.1033 0.539696 13.2305C0.618936 13.3372 0.70428 13.4393 0.795301 13.5362C0.987843 13.741 1.21799 13.9601 1.44679 14.1726C1.67559 14.3852 1.90774 14.6007 2.08056 14.7671C2.15521 14.8433 2.22522 14.924 2.29019 15.0086C2.31481 15.1113 2.33362 15.2152 2.34652 15.3199C2.36984 15.5612 2.39119 15.8755 2.4164 16.1908C2.44162 16.5061 2.46676 16.8256 2.5082 17.0997C2.52657 17.2332 2.55227 17.3655 2.58517 17.4962C2.61513 17.6625 2.69294 17.8165 2.80908 17.9393C2.91659 18.0651 3.05914 18.1559 3.21853 18.2003C3.34387 18.2463 3.47166 18.2854 3.6013 18.3174C3.87081 18.3897 4.18893 18.4429 4.49319 18.4975C4.79745 18.5522 5.10958 18.6007 5.3446 18.6471C5.44782 18.6704 5.54949 18.7 5.64901 18.736C5.72742 18.8086 5.80059 18.8867 5.86799 18.9697C6.01836 19.158 6.20523 19.4111 6.39481 19.6618C6.58439 19.9124 6.77836 20.1622 6.95961 20.3744C7.04736 20.4755 7.14091 20.5715 7.23979 20.6618C7.35465 20.7815 7.50007 20.8675 7.6603 20.9104C7.82053 20.9534 7.98946 20.9517 8.14879 20.9055C8.27826 20.8773 8.40572 20.8406 8.53033 20.7955C8.7951 20.704 9.09361 20.5831 9.38413 20.4612C9.67465 20.3392 9.95964 20.2148 10.1841 20.1269C10.2825 20.0889 10.3832 20.0575 10.4858 20.0328C10.591 20.0543 10.6949 20.0822 10.7968 20.1162C11.0233 20.1945 11.3112 20.2986 11.6058 20.4045C11.9005 20.5105 12.2019 20.6182 12.4701 20.6953C12.5979 20.7343 12.728 20.765 12.8597 20.7873C13.0221 20.8306 13.1939 20.8232 13.352 20.7661C13.5119 20.7184 13.654 20.6242 13.76 20.4954C13.8547 20.3995 13.9432 20.2977 14.025 20.1906C14.1996 19.9682 14.3816 19.7105 14.5592 19.4496C14.7369 19.1887 14.914 18.9296 15.0549 18.7324C15.1205 18.6471 15.1905 18.5653 15.2645 18.4873C15.3628 18.4455 15.4638 18.4107 15.5669 18.383C15.7981 18.3238 16.1027 18.2575 16.4106 18.1867C16.7184 18.116 17.0225 18.0402 17.2892 17.9605C17.4229 17.9177 17.5468 17.8763 17.6683 17.825C17.8267 17.7718 17.966 17.6735 18.0693 17.5422C18.1804 17.4139 18.2504 17.2552 18.2701 17.0866C18.2991 16.9554 18.3192 16.8224 18.3302 16.6885C18.3585 16.4093 18.3744 16.0874 18.3856 15.7715C18.3968 15.4556 18.4088 15.1482 18.4224 14.9043C18.43 14.7969 18.4438 14.6899 18.4637 14.5841C18.526 14.4971 18.5927 14.4134 18.6635 14.3332C18.8276 14.1577 19.0497 13.9356 19.2687 13.7096C19.4877 13.4836 19.7098 13.2501 19.893 13.0341C19.9805 12.933 20.0622 12.827 20.1376 12.7166C20.2432 12.586 20.3072 12.4268 20.3212 12.2595C20.345 12.0924 20.3186 11.9221 20.2454 11.7701C20.1991 11.6445 20.1452 11.5218 20.084 11.4027C19.9577 11.1514 19.8008 10.8795 19.6409 10.6067C19.4811 10.334 19.3175 10.0675 19.2012 9.8562C19.1504 9.76195 19.1052 9.66479 19.0659 9.56521C19.0691 9.45804 19.0798 9.35122 19.0978 9.24552C19.1419 9.00779 19.2113 8.70233 19.2746 8.39312C19.3378 8.08391 19.4028 7.76793 19.4413 7.48935C19.4613 7.35528 19.473 7.22009 19.4763 7.08457C19.4953 6.91871 19.4654 6.75091 19.3904 6.60179C19.3216 6.4475 19.2083 6.31726 19.0651 6.22776C18.9577 6.14775 18.8457 6.07416 18.7297 6.00736C18.488 5.86595 18.208 5.72461 17.9275 5.58521C17.647 5.4458 17.3672 5.31175 17.1548 5.19994C17.0636 5.14701 16.9754 5.08882 16.8909 5.02564C16.8392 4.93347 16.7928 4.8384 16.7519 4.7409C16.6623 4.51909 16.5504 4.22195 16.4377 3.93183C16.3249 3.64171 16.2121 3.34018 16.0945 3.08394C16.0403 2.96014 15.9785 2.83982 15.9094 2.72369C15.835 2.57384 15.7191 2.44857 15.5754 2.36286C15.4916 2.30973 15.3989 2.27224 15.3017 2.25219ZM8.44428 6.58795C8.83152 6.68623 9.18079 6.89745 9.44768 7.19476C9.71456 7.49206 9.887 7.86201 9.94308 8.25758C9.99916 8.65315 9.93633 9.05645 9.76259 9.41622C9.58885 9.77599 9.31205 10.076 8.96738 10.278C8.62271 10.48 8.22574 10.575 7.82695 10.5508C7.42816 10.5267 7.04557 10.3845 6.72781 10.1423C6.41006 9.90011 6.1715 9.56891 6.04248 9.1908C5.91345 8.81268 5.89978 8.40474 6.00321 8.01884C6.14068 7.50698 6.47425 7.06988 6.93169 6.80221C7.38913 6.53453 7.9336 6.45784 8.44718 6.58873L8.44428 6.58795ZM12.7944 7.88475C12.9549 7.93025 13.0909 8.03748 13.1726 8.18299C13.2543 8.3285 13.275 8.50044 13.2303 8.66119C13.1988 8.7693 13.1403 8.86764 13.0604 8.947L8.59431 13.4548C8.53794 13.5149 8.47023 13.5632 8.39511 13.5969C8.31998 13.6307 8.23891 13.6493 8.15658 13.6515C8.07425 13.6538 7.99228 13.6398 7.9154 13.6102C7.83852 13.5807 7.76826 13.5362 7.70865 13.4794C7.58838 13.3632 7.51877 13.2043 7.51494 13.0371C7.5111 12.87 7.57334 12.708 7.68815 12.5865L7.7084 12.565L12.1823 8.05922C12.26 7.97693 12.3587 7.91738 12.4677 7.88696C12.5768 7.85654 12.692 7.8564 12.8011 7.88656L12.7944 7.88475ZM8.11954 7.81072C7.97652 7.77093 7.8249 7.77454 7.68393 7.82109C7.54297 7.86763 7.41901 7.95501 7.32779 8.07214C7.23658 8.18926 7.18222 8.33085 7.17162 8.47892C7.16102 8.62699 7.19466 8.77488 7.26826 8.9038C7.34186 9.03272 7.45211 9.13687 7.58501 9.20302C7.71791 9.26917 7.86747 9.29434 8.0147 9.27533C8.16193 9.25633 8.30019 9.194 8.41194 9.09627C8.52368 8.99854 8.60387 8.86982 8.64232 8.72643C8.66959 8.63197 8.67764 8.533 8.66598 8.43538C8.65432 8.33776 8.6232 8.24347 8.57446 8.15809C8.52571 8.07271 8.46034 7.99797 8.3822 7.93831C8.30406 7.87864 8.21474 7.83525 8.11954 7.81072ZM13.2107 11.6266C13.5968 11.7273 13.9443 11.9403 14.2091 12.2387C14.4739 12.5371 14.6442 12.9074 14.6983 13.3027C14.7524 13.698 14.6878 14.1005 14.5129 14.459C14.3379 14.8176 14.0604 15.1161 13.7156 15.3168C13.3707 15.5174 12.974 15.6111 12.5758 15.586C12.1777 15.5609 11.7959 15.4181 11.479 15.1757C11.1621 14.9333 10.9243 14.6023 10.7958 14.2246C10.6672 13.8469 10.6538 13.4395 10.7571 13.0542C10.8948 12.5403 11.2303 12.1019 11.6901 11.8345C12.15 11.5671 12.697 11.4925 13.2117 11.6269L13.2107 11.6266ZM12.8839 12.8457C12.7405 12.8054 12.5884 12.8087 12.4469 12.855C12.3055 12.9013 12.1809 12.9887 12.0892 13.1059C11.9974 13.2232 11.9426 13.3651 11.9316 13.5136C11.9207 13.6621 11.9541 13.8104 12.0277 13.9399C12.1012 14.0693 12.2116 14.174 12.3448 14.2406C12.4779 14.3072 12.6279 14.3327 12.7756 14.3139C12.9233 14.2951 13.062 14.2328 13.1743 14.1349C13.2865 14.0371 13.3671 13.9081 13.4059 13.7643C13.4331 13.6698 13.4413 13.5707 13.4298 13.473C13.4182 13.3752 13.3873 13.2808 13.3388 13.1952C13.2903 13.1095 13.2252 13.0344 13.1473 12.9743C13.0694 12.9142 12.9802 12.8702 12.8851 12.845L12.8839 12.8457Z" fill="#FF2300"/>
</svg>
