<svg width="19" height="19" viewBox="0 0 19 19" fill="none" xmlns="http://www.w3.org/2000/svg">
<g clip-path="url(#clip0_4_2)">
<path d="M17.879 18.866L17.8 18.8L14.829 15.9C13.202 17.1727 11.1946 17.8619 9.129 17.857C6.73568 17.8802 4.43078 16.9536 2.71954 15.2802C1.0083 13.6068 0.0303281 11.3232 0 8.93C0.0295395 6.53588 1.00744 4.25122 2.7192 2.57714C4.43096 0.903061 6.73682 -0.0237501 9.131 -9.02161e-07C11.5252 -0.0237501 13.831 0.903061 15.5428 2.57714C17.2546 4.25122 18.2325 6.53588 18.262 8.93C18.2612 11.1733 17.4026 13.3314 15.862 14.962L18.798 17.825C18.8631 17.8882 18.9149 17.9638 18.9502 18.0474C18.9856 18.131 19.0038 18.2208 19.0038 18.3115C19.0038 18.4022 18.9856 18.492 18.9502 18.5756C18.9149 18.6592 18.8631 18.7348 18.798 18.798C18.6775 18.9149 18.5198 18.9858 18.3523 18.9982C18.1849 19.0107 18.0184 18.9639 17.882 18.866H17.879ZM1.406 8.93C1.43106 10.9552 2.25829 12.8878 3.70627 14.3039C5.15425 15.72 7.10476 16.504 9.13 16.484C11.1554 16.5043 13.1062 15.7204 14.5544 14.3042C16.0026 12.8881 16.8299 10.9554 16.855 8.93C16.8299 6.90481 16.0027 4.97223 14.5547 3.55612C13.1068 2.14001 11.1562 1.35599 9.131 1.376C7.10558 1.35572 5.15482 2.13963 3.70662 3.55577C2.25843 4.9719 1.43106 6.90464 1.406 8.93V8.93Z" fill="#200E32"/>
</g>
<defs>
<clipPath id="clip0_4_2">
<rect width="19" height="19" fill="white"/>
</clipPath>
</defs>
</svg>
