<svg width="32" height="39" viewBox="0 0 32 39" fill="none" xmlns="http://www.w3.org/2000/svg">
<g clip-path="url(#clip0_7_20)">
<path d="M21.426 30.03C19.5993 31.8422 17.6467 33.5231 15.583 35.06C12.719 32.819 3.283 26.035 2.849 16.28C2.75604 14.5789 3.00489 12.8765 3.58086 11.2732C4.15683 9.66991 5.04824 8.1983 6.20244 6.94528C7.35664 5.69225 8.75024 4.68322 10.3009 3.97777C11.8516 3.27232 13.5279 2.88476 15.2309 2.83798C16.9338 2.7912 18.6289 3.08615 20.216 3.70541C21.803 4.32466 23.2499 5.25567 24.4712 6.44345C25.6924 7.63122 26.6633 9.05168 27.3264 10.6209C27.9895 12.1902 28.3314 13.8764 28.332 15.58C28.3163 17.8424 27.8364 20.0775 26.922 22.147C26.7894 22.4669 26.7783 22.8242 26.8908 23.1517C27.0033 23.4792 27.2317 23.7542 27.533 23.925V23.925C27.7111 24.0275 27.909 24.0909 28.1136 24.1108C28.3181 24.1307 28.5245 24.1067 28.719 24.0404C28.9136 23.9742 29.0917 23.8671 29.2416 23.7265C29.3914 23.5859 29.5095 23.4149 29.588 23.225C30.5789 20.8908 31.1132 18.3883 31.162 15.853C31.265 12.1151 30.0053 8.46725 27.6177 5.58938C25.2302 2.71151 21.8777 0.799955 18.185 0.210991C15.9499 -0.165786 13.6596 -0.0507575 11.4735 0.548064C9.28738 1.14689 7.25812 2.2151 5.52705 3.6783C3.79597 5.1415 2.40471 6.96451 1.45016 9.02033C0.495613 11.0762 0.000735338 13.3154 0 15.582C0 28.912 14.166 37.567 14.775 37.992C15.0121 38.1566 15.2939 38.2448 15.5825 38.2448C15.8711 38.2448 16.1529 38.1566 16.39 37.992C19.0034 36.2953 21.4164 34.3083 23.583 32.069C23.7339 31.9114 23.8472 31.7216 23.9142 31.5138C23.9811 31.3061 24.0001 31.0859 23.9697 30.8698C23.9393 30.6537 23.8603 30.4473 23.7385 30.2662C23.6168 30.085 23.4556 29.9338 23.267 29.824L23.183 29.776C22.9035 29.6172 22.5791 29.5559 22.261 29.6019C21.9428 29.6479 21.649 29.7985 21.426 30.03V30.03Z" fill="#119273"/>
<path d="M15.582 8.49899C14.1811 8.49899 12.8117 8.9144 11.6469 9.69269C10.4821 10.471 9.57425 11.5772 9.03816 12.8714C8.50206 14.1657 8.36179 15.5899 8.63509 16.9638C8.90839 18.3378 9.58298 19.5999 10.5736 20.5904C11.5641 21.581 12.8262 22.2556 14.2002 22.5289C15.5741 22.8022 16.9983 22.6619 18.2925 22.1258C19.5868 21.5897 20.693 20.6819 21.4713 19.5171C22.2496 18.3523 22.665 16.9829 22.665 15.582C22.6647 13.7035 21.9184 11.9021 20.5901 10.5738C19.2619 9.24559 17.4604 8.49926 15.582 8.49899V8.49899ZM15.582 19.832C14.7414 19.832 13.9197 19.5827 13.2208 19.1157C12.5219 18.6487 11.9772 17.985 11.6555 17.2084C11.3338 16.4318 11.2497 15.5773 11.4137 14.7529C11.5776 13.9284 11.9824 13.1712 12.5768 12.5768C13.1712 11.9824 13.9284 11.5776 14.7529 11.4137C15.5773 11.2497 16.4318 11.3338 17.2084 11.6555C17.985 11.9772 18.6487 12.5219 19.1157 13.2208C19.5827 13.9197 19.832 14.7414 19.832 15.582C19.8321 16.1401 19.7223 16.6929 19.5088 17.2086C19.2952 17.7242 18.9822 18.1928 18.5875 18.5875C18.1928 18.9822 17.7242 19.2952 17.2086 19.5087C16.6929 19.7223 16.1402 19.8321 15.582 19.832V19.832Z" fill="#134574"/>
</g>
<defs>
<clipPath id="clip0_7_20">
<rect width="31.165" height="38.245" fill="white"/>
</clipPath>
</defs>
</svg>
