<svg width="17" height="21" viewBox="0 0 17 21" fill="none" xmlns="http://www.w3.org/2000/svg">
<path d="M8.32903 10.306C10.9678 10.306 13.107 8.16682 13.107 5.528C13.107 2.88918 10.9678 0.75 8.32903 0.75C5.69021 0.75 3.55103 2.88918 3.55103 5.528C3.55103 8.16682 5.69021 10.306 8.32903 10.306Z" stroke="#10AE73" stroke-width="1.5" stroke-miterlimit="10" stroke-linecap="round" stroke-linejoin="round"/>
<path d="M0.750013 16.951C0.748864 16.6152 0.824094 16.2835 0.970013 15.981C1.30213 15.5305 1.72419 15.1539 2.20944 14.8751C2.6947 14.5962 3.23258 14.4211 3.78901 14.361C4.56138 14.1974 5.34432 14.0884 6.13201 14.035C7.59087 13.9068 9.05816 13.9068 10.517 14.035C11.3047 14.0904 12.0876 14.2006 12.86 14.365C13.931 14.585 15.222 15.024 15.679 15.985C15.8239 16.2896 15.8991 16.6227 15.8991 16.96C15.8991 17.2973 15.8239 17.6304 15.679 17.935C15.221 18.896 13.931 19.335 12.86 19.546C12.0886 19.7177 11.3054 19.8311 10.517 19.885C9.33059 19.9839 8.13874 20.0006 6.95001 19.935C6.67719 19.9441 6.40414 19.9256 6.13501 19.88C5.3495 19.8267 4.56922 19.7134 3.80101 19.541C2.71801 19.335 1.43701 18.892 0.970013 17.935C0.824131 17.6275 0.748958 17.2913 0.750013 16.951V16.951Z" stroke="#10AE73" stroke-width="1.5" stroke-miterlimit="10" stroke-linecap="round" stroke-linejoin="round"/>
</svg>
