<svg width="17" height="21" viewBox="0 0 17 21" fill="none" xmlns="http://www.w3.org/2000/svg">
<g clip-path="url(#clip0_3_4)">
<path d="M8.329 10.306C10.9678 10.306 13.107 8.16682 13.107 5.528C13.107 2.88918 10.9678 0.75 8.329 0.75C5.69018 0.75 3.551 2.88918 3.551 5.528C3.551 8.16682 5.69018 10.306 8.329 10.306Z" stroke="black" stroke-width="1.5" stroke-miterlimit="10" stroke-linecap="round" stroke-linejoin="round"/>
<path d="M0.75 16.951C0.74885 16.6152 0.82408 16.2835 0.97 15.981C1.30212 15.5305 1.72418 15.1539 2.20943 14.8751C2.69469 14.5962 3.23257 14.4211 3.789 14.361C4.56136 14.1974 5.34431 14.0884 6.132 14.035C7.59086 13.9068 9.05814 13.9068 10.517 14.035C11.3047 14.0904 12.0876 14.2006 12.86 14.365C13.931 14.585 15.222 15.024 15.679 15.985C15.8239 16.2896 15.8991 16.6227 15.8991 16.96C15.8991 17.2973 15.8239 17.6304 15.679 17.935C15.221 18.896 13.931 19.335 12.86 19.546C12.0886 19.7177 11.3054 19.8311 10.517 19.885C9.33057 19.9839 8.13873 20.0006 6.95 19.935C6.67718 19.9441 6.40413 19.9256 6.135 19.88C5.34949 19.8267 4.56921 19.7134 3.801 19.541C2.718 19.335 1.437 18.892 0.97 17.935C0.824118 17.6275 0.748945 17.2913 0.75 16.951V16.951Z" stroke="black" stroke-width="1.5" stroke-miterlimit="10" stroke-linecap="round" stroke-linejoin="round"/>
</g>
<defs>
<clipPath id="clip0_3_4">
<rect width="16.665" height="20.723" fill="white"/>
</clipPath>
</defs>
</svg>
