<svg width="44" height="15" fill="none" xmlns="http://www.w3.org/2000/svg"><path d="M28.643.68c-3.067 0-5.809 1.593-5.809 4.53 0 3.368 4.861 3.602 4.861 5.293 0 .714-.817 1.35-2.21 1.35-1.98 0-3.46-.892-3.46-.892l-.635 2.967s1.704.753 3.966.753c3.356 0 5.994-1.67 5.994-4.658 0-3.56-4.883-3.784-4.883-5.359 0-.558.67-1.172 2.063-1.172 1.57 0 2.85.649 2.85.649L32 1.278c0 .004-1.393-.597-3.356-.597zM.573.898L.5 1.33s1.289.238 2.452.709c1.497.54 1.605.856 1.856 1.834L7.554 14.46h3.68L16.91.897h-3.672l-3.646 9.221-1.488-7.815C7.97 1.408 7.277.897 6.43.897H.574zm17.815 0l-2.88 13.559h3.503L21.878.897h-3.49zm19.536 0c-.843 0-1.293.454-1.622 1.241l-5.13 12.318h3.673l.71-2.054h4.475l.433 2.054h3.244L40.878.897h-2.954zm.48 3.663l1.09 5.09h-2.92l1.83-5.09z" fill="#fff" opacity="1"/></svg>